<svg width="103" height="45" viewBox="0 0 103 45" fill="none" xmlns="http://www.w3.org/2000/svg">
<path d="M102.5 22.5C102.5 34.9264 92.495 45 80.1531 45C67.8113 45 57.8063 34.9264 57.8063 22.5C57.8063 10.0736 67.8113 0 80.1531 0C92.495 0 102.5 10.0736 102.5 22.5Z" fill="#060606"/>
<path d="M96.9133 32.3752H89.9947V31.4842H93.5596C93.4557 31.4639 93.3333 31.3846 93.1925 31.2462C93.0518 31.1078 92.9294 30.9222 92.8255 30.6894C92.7182 30.4565 92.6646 30.1882 92.6646 29.8844C92.6646 29.4963 92.7568 29.152 92.9411 28.8517C93.1221 28.5513 93.3769 28.315 93.7054 28.1429C94.0305 27.9674 94.4127 27.8797 94.8518 27.8797C95.2909 27.8797 95.6747 27.9674 96.0032 28.1429C96.3284 28.315 96.5814 28.5513 96.7624 28.8517C96.9435 29.152 97.034 29.4963 97.034 29.8844C97.034 30.1713 96.9803 30.4312 96.8731 30.664C96.7658 30.8935 96.6401 31.0809 96.496 31.226C96.3518 31.3711 96.2228 31.4622 96.1088 31.4993H96.9133V32.3752ZM94.8518 28.7555C94.5535 28.7555 94.2954 28.8162 94.0775 28.9377C93.8596 29.0592 93.6903 29.2212 93.5696 29.4237C93.449 29.6229 93.3886 29.8422 93.3886 30.0819C93.3886 30.3417 93.4506 30.578 93.5747 30.7906C93.6953 31.0032 93.8663 31.172 94.0875 31.2969C94.3054 31.4217 94.5602 31.4842 94.8518 31.4842C95.1434 31.4842 95.3998 31.4217 95.6211 31.2969C95.839 31.172 96.0082 31.0032 96.1289 30.7906C96.2496 30.578 96.3099 30.3417 96.3099 30.0819C96.3099 29.8422 96.2513 29.6229 96.1339 29.4237C96.0133 29.2212 95.844 29.0592 95.6261 28.9377C95.4082 28.8162 95.1501 28.7555 94.8518 28.7555Z" fill="#E3E5EA"/>
<path d="M96.9133 23.704H96.1088C96.1926 23.731 96.3083 23.8103 96.4557 23.9419C96.6032 24.0702 96.7373 24.2473 96.858 24.4735C96.9753 24.6962 97.034 24.9595 97.034 25.2632C97.034 25.648 96.9435 25.9973 96.7624 26.3112C96.5814 26.6217 96.3284 26.8697 96.0032 27.0553C95.6747 27.2376 95.2909 27.3287 94.8518 27.3287C94.4127 27.3287 94.0305 27.2376 93.7054 27.0553C93.3769 26.8697 93.1221 26.6217 92.9411 26.3112C92.7568 25.9973 92.6646 25.648 92.6646 25.2632C92.6646 24.9628 92.7182 24.703 92.8255 24.4836C92.9328 24.2608 93.0568 24.0837 93.1976 23.952C93.3383 23.817 93.459 23.7377 93.5596 23.7141H92.7853V22.8433H96.9133V23.704ZM94.8518 26.458C95.1501 26.458 95.4082 26.3922 95.6261 26.2605C95.844 26.1289 96.0133 25.9585 96.1339 25.7492C96.2513 25.5366 96.3099 25.3105 96.3099 25.0708C96.3099 24.8143 96.2496 24.5848 96.1289 24.3823C96.0082 24.1798 95.839 24.0195 95.6211 23.9014C95.3998 23.7833 95.1434 23.7242 94.8518 23.7242C94.5602 23.7242 94.3054 23.7833 94.0875 23.9014C93.8663 24.0195 93.6953 24.1798 93.5747 24.3823C93.4506 24.5848 93.3886 24.8143 93.3886 25.0708C93.3886 25.3105 93.449 25.5366 93.5696 25.7492C93.6903 25.9585 93.8596 26.1289 94.0775 26.2605C94.2954 26.3922 94.5535 26.458 94.8518 26.458Z" fill="#E3E5EA"/>
<path d="M92.6646 19.3426C92.6646 19.0693 92.7216 18.8043 92.8355 18.5478C92.9495 18.2879 93.1305 18.0753 93.3786 17.9099C93.6233 17.7412 93.9434 17.6568 94.3389 17.6568H96.9133V18.5478H94.5099C94.1009 18.5478 93.8043 18.644 93.6199 18.8364C93.4322 19.0287 93.3383 19.2768 93.3383 19.5806C93.3383 19.7797 93.3953 19.9721 93.5093 20.1577C93.6199 20.3399 93.7741 20.4901 93.9719 20.6083C94.1663 20.7264 94.3875 20.7854 94.6356 20.7854H96.9133V21.6663H92.7853V20.7854H93.5194C93.4054 20.7551 93.2814 20.6724 93.1473 20.5374C93.0132 20.4024 92.8992 20.2303 92.8054 20.021C92.7115 19.8118 92.6646 19.5856 92.6646 19.3426Z" fill="#E3E5EA"/>
<path d="M92.7853 13.9636V12.9004L94.7512 15.0469L96.9133 12.7587V13.837L95.0831 15.7658H96.9133V16.6467H89.9947V15.7658H94.4194L92.7853 13.9636Z" fill="#E3E5EA"/>
<path d="M0.5 28.4062V11.475H11.3583V13.9663H3.57493V18.7071H9.86892V21.15H3.57493V28.4062H0.5Z" fill="white"/>
<path d="M18.7433 28.6965C17.5902 28.6965 16.5492 28.4304 15.6203 27.8983C14.7075 27.3662 13.9788 26.6325 13.4343 25.6972C12.9057 24.7459 12.6415 23.6494 12.6415 22.4077C12.6415 21.1661 12.9138 20.0777 13.4583 19.1424C14.0028 18.1911 14.7315 17.4493 15.6444 16.9172C16.5732 16.3851 17.6142 16.119 18.7673 16.119C19.9044 16.119 20.9294 16.3851 21.8423 16.9172C22.7711 17.4493 23.4998 18.1911 24.0283 19.1424C24.5729 20.0777 24.8451 21.1661 24.8451 22.4077C24.8451 23.6494 24.5729 24.7459 24.0283 25.6972C23.4998 26.6325 22.7711 27.3662 21.8423 27.8983C20.9134 28.4304 19.8804 28.6965 18.7433 28.6965ZM18.7433 26.0117C19.5441 26.0117 20.2407 25.7134 20.8333 25.1168C21.4259 24.504 21.7221 23.601 21.7221 22.4077C21.7221 21.2145 21.4259 20.3196 20.8333 19.7229C20.2407 19.1102 19.5521 18.8038 18.7673 18.8038C17.9506 18.8038 17.2459 19.1102 16.6533 19.7229C16.0768 20.3196 15.7885 21.2145 15.7885 22.4077C15.7885 23.601 16.0768 24.504 16.6533 25.1168C17.2459 25.7134 17.9425 26.0117 18.7433 26.0117Z" fill="white"/>
<path d="M27.5944 28.4062V16.4093H30.333L30.6213 18.6587C31.0537 17.8847 31.6383 17.2719 32.375 16.8204C33.1277 16.3528 34.0085 16.119 35.0175 16.119V19.3843H34.1527C33.48 19.3843 32.8795 19.4891 32.351 19.6987C31.8225 19.9084 31.4061 20.2712 31.1018 20.7872C30.8135 21.3032 30.6694 22.0207 30.6694 22.9399V28.4062H27.5944Z" fill="white"/>
<path d="M42.4282 28.4062C41.179 28.4062 40.178 28.0999 39.4253 27.4871C38.6726 26.8744 38.2962 25.7859 38.2962 24.2218V18.9973H36.2543V16.4093H38.2962L38.6566 13.1923H41.3712V16.4093H44.5902V18.9973H41.3712V24.246C41.3712 24.8265 41.4913 25.2296 41.7315 25.4554C41.9878 25.665 42.4202 25.7698 43.0287 25.7698H44.5182V28.4062H42.4282Z" fill="white"/>
<path d="M51.6986 28.6965C50.2091 28.6965 49.056 28.2289 48.2393 27.2936C47.4385 26.3584 47.0381 24.9877 47.0381 23.1817V16.4093H50.089V22.8915C50.089 23.9235 50.2972 24.7136 50.7136 25.2619C51.13 25.8101 51.7866 26.0843 52.6835 26.0843C53.5323 26.0843 54.229 25.7779 54.7735 25.1651C55.334 24.5524 55.6143 23.6978 55.6143 22.6012V16.4093H58.6892V28.4062H55.9746L55.7344 26.3745C55.3661 27.084 54.8295 27.6484 54.1249 28.0676C53.4362 28.4869 52.6274 28.6965 51.6986 28.6965Z" fill="white"/>
<path d="M61.8458 28.4062V16.4093H64.5604L64.8006 18.441C65.169 17.7315 65.6975 17.1671 66.3861 16.7479C67.0908 16.3286 67.9156 16.119 68.8605 16.119C70.3339 16.119 71.479 16.5866 72.2957 17.5219C73.1125 18.4571 73.5209 19.8277 73.5209 21.6337V28.4062H70.446V21.924C70.446 20.892 70.2378 20.1019 69.8214 19.5536C69.405 19.0054 68.7564 18.7312 67.8755 18.7312C67.0107 18.7312 66.298 19.0376 65.7375 19.6504C65.193 20.2631 64.9207 21.1178 64.9207 22.2143V28.4062H61.8458Z" fill="white"/>
<path d="M80.5692 28.6965C79.5442 28.6965 78.7034 28.5352 78.0468 28.2127C77.3902 27.8741 76.9017 27.4307 76.5814 26.8824C76.2611 26.3342 76.1009 25.7295 76.1009 25.0684C76.1009 23.9557 76.5333 23.0527 77.3982 22.3594C78.263 21.666 79.5602 21.3193 81.2899 21.3193H84.3167V21.0291C84.3167 20.2067 84.0845 19.602 83.6201 19.215C83.1556 18.828 82.5791 18.6345 81.8904 18.6345C81.2658 18.6345 80.7213 18.7877 80.2569 19.0941C79.7924 19.3843 79.5042 19.8197 79.3921 20.4002H76.3892C76.4693 19.5294 76.7575 18.7716 77.254 18.1266C77.7665 17.4816 78.4231 16.9897 79.2239 16.6511C80.0247 16.2964 80.9215 16.119 81.9145 16.119C83.6121 16.119 84.9493 16.5463 85.9263 17.4009C86.9032 18.2556 87.3917 19.4649 87.3917 21.0291V28.4062H84.7732L84.4849 26.4713C84.1326 27.1163 83.6361 27.6484 82.9955 28.0676C82.3709 28.4869 81.5621 28.6965 80.5692 28.6965ZM81.2658 26.2778C82.1467 26.2778 82.8273 25.9875 83.3078 25.407C83.8043 24.8265 84.1165 24.1089 84.2447 23.2543H81.6262C80.8094 23.2543 80.2249 23.4075 79.8725 23.7139C79.5202 24.0041 79.344 24.3669 79.344 24.8023C79.344 25.2699 79.5202 25.6327 79.8725 25.8908C80.2249 26.1488 80.6893 26.2778 81.2658 26.2778Z" fill="white"/>
</svg>
