<svg width="123" height="54" viewBox="0 0 123 54" fill="none" xmlns="http://www.w3.org/2000/svg">
<path d="M123 27C123 41.9117 110.935 54 96.0523 54C81.1695 54 69.1046 41.9117 69.1046 27C69.1046 12.0883 81.1695 0 96.0523 0C110.935 0 123 12.0883 123 27Z" fill="#CDFD06"/>
<path d="M116.263 38.8502H107.92V37.781H112.219C112.094 37.7567 111.946 37.6615 111.776 37.4955C111.607 37.3294 111.459 37.1067 111.334 36.8272C111.204 36.5478 111.14 36.2258 111.14 35.8613C111.14 35.3955 111.251 34.9824 111.473 34.622C111.691 34.2615 111.999 33.978 112.395 33.7715C112.787 33.5609 113.248 33.4556 113.777 33.4556C114.307 33.4556 114.77 33.5609 115.166 33.7715C115.558 33.978 115.863 34.2615 116.081 34.622C116.299 34.9824 116.409 35.3955 116.409 35.8613C116.409 36.2055 116.344 36.5174 116.215 36.7968C116.085 37.0722 115.934 37.297 115.76 37.4712C115.586 37.6453 115.43 37.7547 115.293 37.7992H116.263V38.8502ZM113.777 34.5066C113.417 34.5066 113.106 34.5795 112.843 34.7253C112.581 34.8711 112.377 35.0655 112.231 35.3085C112.086 35.5474 112.013 35.8107 112.013 36.0982C112.013 36.4101 112.088 36.6936 112.237 36.9487C112.383 37.2039 112.589 37.4064 112.856 37.5562C113.118 37.7061 113.425 37.781 113.777 37.781C114.129 37.781 114.438 37.7061 114.705 37.5562C114.968 37.4064 115.172 37.2039 115.317 36.9487C115.463 36.6936 115.535 36.4101 115.535 36.0982C115.535 35.8107 115.465 35.5474 115.323 35.3085C115.178 35.0655 114.974 34.8711 114.711 34.7253C114.448 34.5795 114.137 34.5066 113.777 34.5066Z" fill="#1E1E1E"/>
<path d="M116.263 28.4448H115.293C115.394 28.4772 115.533 28.5723 115.711 28.7303C115.889 28.8842 116.051 29.0968 116.196 29.3682C116.338 29.6355 116.409 29.9514 116.409 30.3159C116.409 30.7776 116.299 31.1967 116.081 31.5734C115.863 31.946 115.558 32.2437 115.166 32.4664C114.77 32.6851 114.307 32.7945 113.777 32.7945C113.248 32.7945 112.787 32.6851 112.395 32.4664C111.999 32.2437 111.691 31.946 111.473 31.5734C111.251 31.1967 111.14 30.7776 111.14 30.3159C111.14 29.9554 111.204 29.6436 111.334 29.3803C111.463 29.113 111.613 28.9004 111.782 28.7424C111.952 28.5804 112.098 28.4853 112.219 28.4569H111.285V27.412H116.263V28.4448ZM113.777 31.7496C114.137 31.7496 114.448 31.6706 114.711 31.5126C114.974 31.3547 115.178 31.1502 115.323 30.8991C115.465 30.6439 115.535 30.3726 115.535 30.085C115.535 29.7772 115.463 29.5018 115.317 29.2588C115.172 29.0158 114.968 28.8234 114.705 28.6817C114.438 28.5399 114.129 28.4691 113.777 28.4691C113.425 28.4691 113.118 28.5399 112.856 28.6817C112.589 28.8234 112.383 29.0158 112.237 29.2588C112.088 29.5018 112.013 29.7772 112.013 30.085C112.013 30.3726 112.086 30.6439 112.231 30.8991C112.377 31.1502 112.581 31.3547 112.843 31.5126C113.106 31.6706 113.417 31.7496 113.777 31.7496Z" fill="#1E1E1E"/>
<path d="M111.14 23.2112C111.14 22.8831 111.208 22.5652 111.346 22.2574C111.483 21.9455 111.702 21.6904 112.001 21.4919C112.296 21.2894 112.682 21.1882 113.159 21.1882H116.263V22.2574H113.365C112.872 22.2574 112.514 22.3728 112.292 22.6037C112.065 22.8345 111.952 23.1322 111.952 23.4967C111.952 23.7356 112.021 23.9665 112.158 24.1892C112.292 24.4079 112.478 24.5882 112.716 24.7299C112.951 24.8717 113.217 24.9425 113.516 24.9425H116.263V25.9996H111.285V24.9425H112.17C112.033 24.9061 111.883 24.8069 111.722 24.6449C111.56 24.4829 111.423 24.2763 111.309 24.0252C111.196 23.7741 111.14 23.5028 111.14 23.2112Z" fill="#1E1E1E"/>
<path d="M111.285 16.7563V15.4805L113.656 18.0563L116.263 15.3104V16.6044L114.056 18.919H116.263V19.976H107.92V18.919H113.256L111.285 16.7563Z" fill="#1E1E1E"/>
<path d="M0 34.0875V13.77H13.0939V16.7596H3.708V22.4485H11.2978V25.38H3.708V34.0875H0Z" fill="white"/>
<path d="M21.9993 34.4358C20.6088 34.4358 19.3535 34.1165 18.2333 33.478C17.1325 32.8394 16.2538 31.959 15.5972 30.8367C14.9599 29.695 14.6412 28.3792 14.6412 26.8893C14.6412 25.3993 14.9695 24.0932 15.6262 22.9709C16.2828 21.8293 17.1615 20.9392 18.2623 20.3006C19.3824 19.6621 20.6377 19.3428 22.0282 19.3428C23.3994 19.3428 24.6354 19.6621 25.7363 20.3006C26.8564 20.9392 27.7351 21.8293 28.3724 22.9709C29.029 24.0932 29.3573 25.3993 29.3573 26.8893C29.3573 28.3792 29.029 29.695 28.3724 30.8367C27.7351 31.959 26.8564 32.8394 25.7363 33.478C24.6161 34.1165 23.3705 34.4358 21.9993 34.4358ZM21.9993 31.214C22.9649 31.214 23.805 30.8561 24.5196 30.1401C25.2341 29.4048 25.5914 28.3212 25.5914 26.8893C25.5914 25.4574 25.2341 24.3835 24.5196 23.6675C23.805 22.9322 22.9746 22.5646 22.0282 22.5646C21.0433 22.5646 20.1936 22.9322 19.479 23.6675C18.7838 24.3835 18.4361 25.4574 18.4361 26.8893C18.4361 28.3212 18.7838 29.4048 19.479 30.1401C20.1936 30.8561 21.0337 31.214 21.9993 31.214Z" fill="white"/>
<path d="M32.6727 34.0875V19.6911H35.9751L36.3228 22.3904C36.8442 21.4616 37.5491 20.7263 38.4375 20.1845C39.3452 19.6234 40.4073 19.3428 41.624 19.3428V23.2612H40.5812C39.77 23.2612 39.0458 23.387 38.4085 23.6385C37.7712 23.8901 37.2691 24.3254 36.9021 24.9446C36.5545 25.5638 36.3807 26.4249 36.3807 27.5278V34.0875H32.6727Z" fill="white"/>
<path d="M50.5604 34.0875C49.0541 34.0875 47.847 33.7199 46.9393 32.9846C46.0317 32.2493 45.5778 30.9431 45.5778 29.0662V22.7968H43.1155V19.6911H45.5778L46.0123 15.8308H49.2858V19.6911H53.1676V22.7968H49.2858V29.0952C49.2858 29.7918 49.4307 30.2755 49.7203 30.5464C50.0293 30.798 50.5508 30.9238 51.2847 30.9238H53.0807V34.0875H50.5604Z" fill="white"/>
<path d="M61.7394 34.4358C59.9434 34.4358 58.5529 33.8746 57.5679 32.7523C56.6023 31.6301 56.1195 29.9853 56.1195 27.8181V19.6911H59.7985V27.4698C59.7985 28.7082 60.0496 29.6564 60.5517 30.3143C61.0538 30.9722 61.8457 31.3011 62.9272 31.3011C63.9507 31.3011 64.7908 30.9335 65.4474 30.1982C66.1234 29.4629 66.4613 28.4373 66.4613 27.1215V19.6911H70.1693V34.0875H66.8959L66.6062 31.6494C66.162 32.5008 65.515 33.1781 64.6653 33.6811C63.8348 34.1842 62.8596 34.4358 61.7394 34.4358Z" fill="white"/>
<path d="M73.9758 34.0875V19.6911H77.2493L77.539 22.1292C77.9831 21.2778 78.6205 20.6005 79.4509 20.0974C80.3006 19.5943 81.2952 19.3428 82.4347 19.3428C84.2114 19.3428 85.5923 19.9039 86.5772 21.0263C87.5621 22.1486 88.0546 23.7933 88.0546 25.9605V34.0875H84.3466V26.3088C84.3466 25.0704 84.0956 24.1222 83.5934 23.4643C83.0913 22.8064 82.3091 22.4775 81.247 22.4775C80.2041 22.4775 79.3447 22.8451 78.6687 23.5805C78.0121 24.3158 77.6838 25.3413 77.6838 26.6571V34.0875H73.9758Z" fill="white"/>
<path d="M96.554 34.4358C95.318 34.4358 94.3041 34.2423 93.5123 33.8553C92.7205 33.4489 92.1314 32.9168 91.7452 32.2589C91.3589 31.601 91.1658 30.8754 91.1658 30.082C91.1658 28.7469 91.6873 27.6633 92.7301 26.8313C93.773 25.9992 95.3373 25.5832 97.4231 25.5832H101.073V25.2349C101.073 24.248 100.793 23.5224 100.233 23.058C99.673 22.5936 98.9777 22.3614 98.1473 22.3614C97.3941 22.3614 96.7375 22.5452 96.1774 22.9129C95.6173 23.2612 95.2697 23.7836 95.1345 24.4802H91.5134C91.61 23.4353 91.9576 22.5259 92.5563 21.7519C93.1743 20.9779 93.9661 20.3877 94.9317 19.9813C95.8974 19.5557 96.9789 19.3428 98.1763 19.3428C100.223 19.3428 101.836 19.8556 103.014 20.8811C104.192 21.9067 104.781 23.3579 104.781 25.2349V34.0875H101.624L101.276 31.7655C100.851 32.5395 100.252 33.1781 99.4799 33.6811C98.7267 34.1842 97.7514 34.4358 96.554 34.4358ZM97.3941 31.5333C98.4563 31.5333 99.2771 31.185 99.8564 30.4884C100.455 29.7918 100.832 28.9307 100.986 27.9052H97.8286C96.8437 27.9052 96.1388 28.089 95.7139 28.4567C95.289 28.805 95.0766 29.2403 95.0766 29.7628C95.0766 30.3239 95.289 30.7593 95.7139 31.0689C96.1388 31.3785 96.6988 31.5333 97.3941 31.5333Z" fill="white"/>
</svg>
