<svg width="427" height="431" viewBox="0 0 427 431" fill="none" xmlns="http://www.w3.org/2000/svg">
<g filter="url(#filter0_d_100_3862)">
<path d="M133.365 299.256C129.034 303.963 129.292 311.337 134.382 315.21C152.879 329.285 175.164 337.65 198.499 339.129C225.69 340.853 252.646 333.119 274.831 317.23C297.016 301.341 313.077 278.266 320.31 251.887C327.544 225.509 325.509 197.437 314.549 172.394C303.588 147.352 284.37 126.867 260.129 114.387C235.887 101.907 208.101 98.1933 181.446 103.87C154.792 109.548 130.894 124.269 113.775 145.558C99.0891 163.822 90.1605 185.963 87.977 209.16C87.3757 215.548 92.654 220.743 99.07 220.72L105.047 220.697C111.46 220.674 116.562 215.436 117.365 209.074C119.441 192.627 126.028 176.994 136.496 163.976C149.398 147.931 167.408 136.836 187.497 132.557C207.586 128.279 228.527 131.078 246.796 140.484C265.066 149.889 279.55 165.328 287.81 184.201C296.071 203.075 297.605 224.231 292.153 244.112C286.701 263.992 274.597 281.383 257.877 293.358C241.157 305.332 220.841 311.161 200.348 309.862C183.749 308.81 167.853 303.133 154.398 293.579C149.153 289.854 141.816 290.074 137.46 294.807L133.365 299.256Z" fill="#C0DF3C"/>
</g>
<g filter="url(#filter1_d_100_3862)">
<path d="M306.749 256.256C312.8 258.414 319.513 255.258 321.058 249.021C325.594 230.712 325.745 211.525 321.422 193.053C316.213 170.791 304.726 150.509 288.336 134.633C271.947 118.758 251.348 107.96 229.003 103.532C206.659 99.1036 183.515 101.233 162.339 109.664C141.164 118.095 122.853 132.472 109.597 151.075C96.3415 169.678 88.7017 191.719 87.5918 214.563C86.4818 237.406 91.9486 260.085 103.338 279.887C112.782 296.304 125.965 310.168 141.741 320.381C147.138 323.874 154.196 321.572 157.124 315.85L159.892 310.44C162.808 304.743 160.51 297.82 155.249 294.175C144.386 286.65 135.278 276.772 128.63 265.213C120.046 250.29 115.926 233.198 116.763 215.982C117.599 198.765 123.357 182.154 133.347 168.134C143.338 154.113 157.138 143.278 173.097 136.924C189.056 130.569 206.499 128.965 223.339 132.302C240.179 135.639 255.703 143.777 268.055 155.742C280.408 167.707 289.065 182.993 292.991 199.771C296.034 212.773 296.136 226.246 293.351 239.21C292.006 245.471 295.078 252.093 301.109 254.244L306.749 256.256Z" fill="#B83EFA"/>
</g>
<g filter="url(#filter2_d_100_3862)">
<path d="M312.607 280.204C316.228 282.499 321.046 281.424 323.108 277.666C330.337 264.493 335.256 250.149 337.631 235.262C340.414 217.81 339.643 199.975 335.364 182.834C331.085 165.693 323.387 149.603 312.736 135.538C302.084 121.472 288.701 109.724 273.396 101.003C258.091 92.2821 241.182 86.7701 223.692 84.8005C206.202 82.8309 188.494 84.4447 171.64 89.5442C154.787 94.6437 139.138 103.123 125.639 114.469C114.111 124.159 104.356 135.769 96.7917 148.771C94.6461 152.459 96.1852 157.12 99.9874 159.056L130.296 174.491C134.115 176.435 138.756 174.884 141.046 171.261C145.491 164.229 150.997 157.914 157.382 152.548C165.749 145.514 175.449 140.258 185.897 137.097C196.344 133.936 207.32 132.936 218.162 134.157C229.004 135.378 239.485 138.795 248.973 144.2C258.46 149.606 266.756 156.889 273.358 165.608C279.961 174.327 284.733 184.3 287.385 194.926C290.038 205.551 290.516 216.607 288.79 227.424C287.471 235.695 284.885 243.695 281.137 251.144C279.22 254.955 280.261 259.708 283.864 261.991L312.607 280.204Z" fill="#FF3775"/>
</g>
<defs>
<filter id="filter0_d_100_3862" x="0.824699" y="18.0448" width="410.846" height="412.298" filterUnits="userSpaceOnUse" color-interpolation-filters="sRGB">
<feFlood flood-opacity="0" result="BackgroundImageFix"/>
<feColorMatrix in="SourceAlpha" type="matrix" values="0 0 0 0 0 0 0 0 0 0 0 0 0 0 0 0 0 0 127 0" result="hardAlpha"/>
<feOffset dy="3.87135"/>
<feGaussianBlur stdDeviation="43.5527"/>
<feComposite in2="hardAlpha" operator="out"/>
<feColorMatrix type="matrix" values="0 0 0 0 0.74902 0 0 0 0 0.866667 0 0 0 0 0.239216 0 0 0 0.25 0"/>
<feBlend mode="normal" in2="BackgroundImageFix" result="effect1_dropShadow_100_3862"/>
<feBlend mode="normal" in="SourceGraphic" in2="effect1_dropShadow_100_3862" result="shape"/>
</filter>
<filter id="filter1_d_100_3862" x="0.34539" y="18.0449" width="411.325" height="394.964" filterUnits="userSpaceOnUse" color-interpolation-filters="sRGB">
<feFlood flood-opacity="0" result="BackgroundImageFix"/>
<feColorMatrix in="SourceAlpha" type="matrix" values="0 0 0 0 0 0 0 0 0 0 0 0 0 0 0 0 0 0 127 0" result="hardAlpha"/>
<feOffset dy="3.87135"/>
<feGaussianBlur stdDeviation="43.5527"/>
<feComposite in2="hardAlpha" operator="out"/>
<feColorMatrix type="matrix" values="0 0 0 0 0.721569 0 0 0 0 0.243137 0 0 0 0 0.980392 0 0 0 0.25 0"/>
<feBlend mode="normal" in2="BackgroundImageFix" result="effect1_dropShadow_100_3862"/>
<feBlend mode="normal" in="SourceGraphic" in2="effect1_dropShadow_100_3862" result="shape"/>
</filter>
<filter id="filter2_d_100_3862" x="8.71075" y="0.75242" width="417.663" height="371.629" filterUnits="userSpaceOnUse" color-interpolation-filters="sRGB">
<feFlood flood-opacity="0" result="BackgroundImageFix"/>
<feColorMatrix in="SourceAlpha" type="matrix" values="0 0 0 0 0 0 0 0 0 0 0 0 0 0 0 0 0 0 127 0" result="hardAlpha"/>
<feOffset dy="3.87135"/>
<feGaussianBlur stdDeviation="43.5527"/>
<feComposite in2="hardAlpha" operator="out"/>
<feColorMatrix type="matrix" values="0 0 0 0 1 0 0 0 0 0.266667 0 0 0 0 0.494118 0 0 0 0.12 0"/>
<feBlend mode="normal" in2="BackgroundImageFix" result="effect1_dropShadow_100_3862"/>
<feBlend mode="normal" in="SourceGraphic" in2="effect1_dropShadow_100_3862" result="shape"/>
</filter>
</defs>
</svg>
