<svg width="482" height="278" viewBox="0 0 482 278" fill="none" xmlns="http://www.w3.org/2000/svg">
<g clip-path="url(#clip0_100_560)">
<g clip-path="url(#clip1_100_560)">
<rect width="419.944" height="262.465" transform="matrix(0.866044 -0.499967 0.866044 0.499967 0.230957 170.705)" fill="black"/>
<g filter="url(#filter0_f_100_560)">
<ellipse cx="119.102" cy="66.1026" rx="119.102" ry="66.1026" transform="matrix(1.13051 -0.272009 0.471174 0.652645 68.767 159.948)" fill="#0034EB"/>
</g>
<g filter="url(#filter1_f_100_560)">
<circle cx="81.51" cy="81.51" r="81.51" transform="matrix(0.866044 -0.499967 0.866044 0.499967 -52.3021 198.991)" fill="#425680"/>
</g>
<g filter="url(#filter2_f_100_560)">
<ellipse cx="267.858" cy="82.5307" rx="267.858" ry="82.5307" transform="matrix(1.17963 -0.1902 0.329464 0.680999 159.55 148.716)" fill="#0A34CD"/>
</g>
<g filter="url(#filter3_f_100_560)">
<ellipse cx="403.782" cy="108.518" rx="403.782" ry="108.518" transform="matrix(1.13822 -0.26108 0.452243 0.657094 -177.837 284.193)" fill="#00F3F9"/>
</g>
<g filter="url(#filter4_f_100_560)">
<ellipse cx="141.877" cy="35.287" rx="141.877" ry="35.287" transform="matrix(0.866044 -0.499967 0.866044 0.499967 287.647 246.523)" fill="#81FFD9"/>
</g>
</g>
<path d="M210.189 249.506L203.118 245.424L204.199 244.799L212.452 245.995L211.887 246.322L209.765 241.586L210.846 240.962L217.928 245.039L216.685 245.756L211.553 242.805L211.816 242.653L213.543 246.637L212.957 246.975L206.017 246.001L206.32 245.826L211.442 248.783L210.189 249.506ZM219.717 244.006L214.322 240.891L215.585 240.162L220.98 243.277L219.717 244.006ZM214.07 240.011C213.834 240.147 213.564 240.217 213.261 240.221C212.965 240.221 212.712 240.16 212.504 240.04C212.288 239.916 212.184 239.77 212.19 239.603C212.197 239.428 212.318 239.272 212.554 239.136C212.79 239 213.053 238.93 213.342 238.926C213.632 238.914 213.881 238.969 214.09 239.089C214.312 239.218 214.426 239.369 214.433 239.544C214.433 239.715 214.312 239.871 214.07 240.011ZM225.183 240.932C224.617 241.259 223.994 241.482 223.314 241.603C222.634 241.715 221.96 241.723 221.293 241.626C220.627 241.529 220.027 241.327 219.495 241.019C218.956 240.708 218.606 240.362 218.445 239.981C218.276 239.596 218.293 239.209 218.495 238.821C218.704 238.428 219.091 238.068 219.657 237.742C220.182 237.438 220.751 237.234 221.364 237.129C221.977 237.017 222.593 237.019 223.213 237.135L222.809 238.022C222.391 237.967 222.004 237.973 221.647 238.039C221.297 238.101 220.987 238.21 220.718 238.366C220.408 238.545 220.196 238.745 220.081 238.966C219.967 239.188 219.967 239.414 220.081 239.643C220.189 239.869 220.418 240.082 220.768 240.285C221.118 240.487 221.492 240.621 221.889 240.687C222.28 240.749 222.667 240.747 223.051 240.681C223.435 240.615 223.782 240.493 224.092 240.314C224.361 240.158 224.55 239.979 224.658 239.777C224.772 239.571 224.782 239.348 224.688 239.106L226.223 238.873C226.419 239.227 226.426 239.585 226.244 239.946C226.062 240.3 225.708 240.629 225.183 240.932ZM228.286 237.671L226.73 236.738L226.942 233.606L228.458 232.731L228.468 235.501L228.357 236.207L228.286 237.671ZM228.458 238.96L220.962 234.632L222.225 233.903L229.721 238.231L228.458 238.96ZM232.529 236.609L228.124 236.341L227.912 235.297L234.065 235.723L232.529 236.609ZM241.198 231.721C240.646 232.04 240.05 232.283 239.41 232.45C238.77 232.61 238.117 232.695 237.45 232.707C236.777 232.715 236.123 232.645 235.49 232.497C234.857 232.349 234.278 232.124 233.753 231.82C233.227 231.517 232.837 231.183 232.581 230.817C232.325 230.452 232.207 230.077 232.227 229.692C232.247 229.299 232.402 228.918 232.692 228.549C232.975 228.175 233.392 227.829 233.945 227.51C234.544 227.164 235.18 226.91 235.854 226.746C236.534 226.579 237.228 226.509 237.935 226.536L237.915 227.481C237.363 227.481 236.861 227.538 236.41 227.65C235.958 227.755 235.541 227.919 235.157 228.14C234.787 228.354 234.504 228.587 234.308 228.84C234.113 229.093 234.012 229.35 234.005 229.61C233.999 229.871 234.083 230.125 234.258 230.374C234.44 230.619 234.712 230.846 235.076 231.056C235.433 231.262 235.824 231.418 236.248 231.523C236.679 231.624 237.124 231.675 237.582 231.675C238.033 231.671 238.474 231.614 238.905 231.505C239.336 231.397 239.74 231.233 240.117 231.016C240.467 230.813 240.75 230.588 240.966 230.339C241.181 230.082 241.306 229.793 241.34 229.47L243.067 229.604C242.993 229.989 242.788 230.368 242.451 230.741C242.114 231.107 241.697 231.434 241.198 231.721ZM241.653 230.222L239.006 228.694L240.249 227.977L243.067 229.604L241.653 230.222ZM248.8 227.216L247.709 226.586L247.406 226.493L245.496 225.391C245.126 225.177 244.729 225.076 244.304 225.087C243.873 225.095 243.432 225.229 242.981 225.49C242.678 225.665 242.425 225.865 242.223 226.091C242.028 226.312 241.913 226.53 241.88 226.744L240.465 226.499C240.533 226.203 240.711 225.91 241.001 225.618C241.29 225.319 241.651 225.045 242.082 224.796C242.863 224.345 243.654 224.106 244.456 224.078C245.257 224.043 246.049 224.251 246.83 224.702L249.992 226.528L248.8 227.216ZM247.173 228.237C246.769 228.47 246.348 228.635 245.911 228.733C245.466 228.826 245.038 228.851 244.628 228.808C244.217 228.758 243.856 228.643 243.547 228.464C243.244 228.289 243.042 228.091 242.941 227.869C242.846 227.644 242.893 227.395 243.082 227.123C243.271 226.851 243.638 226.557 244.183 226.242L245.749 225.338L246.588 225.822L245.113 226.674C244.682 226.923 244.463 227.131 244.456 227.298C244.442 227.461 244.537 227.601 244.739 227.718C244.968 227.85 245.241 227.902 245.557 227.875C245.874 227.848 246.194 227.741 246.517 227.554C246.827 227.376 247.032 227.175 247.133 226.954C247.241 226.728 247.21 226.505 247.042 226.283L248.012 226.598C248.207 226.851 248.234 227.119 248.093 227.403C247.958 227.683 247.652 227.961 247.173 228.237ZM251.613 225.592L246.218 222.478L247.42 221.784L248.905 222.641L248.329 222.472C248.127 222.169 248.104 221.864 248.259 221.556C248.42 221.245 248.76 220.94 249.279 220.641L250.481 221.335C250.414 221.358 250.357 221.383 250.309 221.411C250.256 221.434 250.205 221.459 250.158 221.486C249.68 221.763 249.441 222.064 249.441 222.39C249.434 222.713 249.707 223.034 250.259 223.353L252.876 224.863L251.613 225.592ZM258.11 221.923C257.592 222.222 257.009 222.427 256.362 222.535C255.716 222.636 255.069 222.636 254.423 222.535C253.776 222.434 253.173 222.222 252.614 221.9C252.055 221.577 251.688 221.229 251.513 220.856C251.338 220.482 251.342 220.111 251.523 219.742C251.712 219.369 252.066 219.032 252.584 218.733C253.035 218.472 253.541 218.297 254.1 218.208C254.652 218.115 255.234 218.124 255.847 218.237C256.46 218.35 257.083 218.589 257.716 218.954C258.343 219.316 258.76 219.674 258.969 220.028C259.171 220.377 259.195 220.714 259.04 221.037C258.885 221.359 258.575 221.655 258.11 221.923ZM257.181 221.211C257.484 221.037 257.686 220.842 257.787 220.628C257.895 220.411 257.891 220.187 257.777 219.958C257.669 219.724 257.443 219.508 257.1 219.31C256.75 219.108 256.376 218.978 255.979 218.919C255.581 218.853 255.194 218.851 254.817 218.914C254.446 218.972 254.11 219.089 253.807 219.264C253.503 219.438 253.298 219.635 253.19 219.853C253.089 220.066 253.093 220.29 253.2 220.523C253.308 220.749 253.537 220.963 253.887 221.165C254.231 221.363 254.601 221.495 254.999 221.561C255.403 221.624 255.79 221.626 256.16 221.567C256.538 221.505 256.878 221.386 257.181 221.211ZM259.828 220.85L258.555 220.115L257.171 219.258L255.635 218.488L252.281 216.552L253.534 215.828L261.03 220.156L259.828 220.85ZM265.167 220.112C264.904 220.264 264.598 220.39 264.248 220.491C263.897 220.592 263.557 220.649 263.227 220.66L262.803 219.832C263.046 219.824 263.281 219.793 263.51 219.739C263.739 219.684 263.938 219.608 264.106 219.511C264.335 219.379 264.463 219.239 264.49 219.091C264.517 218.944 264.456 218.757 264.308 218.531L263.914 217.942L263.864 217.797L261.136 213.866L262.348 213.166L265.652 217.989C265.888 218.32 266.019 218.613 266.046 218.87C266.08 219.122 266.016 219.35 265.854 219.552C265.699 219.75 265.47 219.937 265.167 220.112ZM264.44 218.409L256.418 216.589L257.732 215.831L264.369 217.377L264.44 218.409Z" fill="white"/>
<path d="M286.164 205.646L279.597 201.855L280.769 201.867L278.698 203.063L277.597 202.427L280.405 200.805L287.477 204.888L286.164 205.646ZM288.789 204.131L287.91 203.623L288.051 200.462C288.065 200.198 288.045 199.984 287.991 199.821C287.937 199.657 287.856 199.525 287.748 199.424C287.641 199.315 287.523 199.224 287.395 199.15C287.071 198.963 286.711 198.884 286.314 198.911C285.91 198.934 285.492 199.07 285.061 199.319C284.718 199.517 284.465 199.733 284.303 199.966C284.148 200.196 284.095 200.441 284.142 200.701L282.515 200.824C282.421 200.451 282.505 200.071 282.768 199.686C283.03 199.294 283.451 198.93 284.031 198.596C284.542 198.3 285.071 198.092 285.617 197.972C286.162 197.844 286.688 197.809 287.193 197.867C287.705 197.921 288.169 198.069 288.587 198.31C288.816 198.442 289.014 198.592 289.183 198.759C289.345 198.922 289.466 199.125 289.547 199.366C289.627 199.607 289.661 199.91 289.648 200.276L289.526 202.993L288.759 202.865L292.89 200.48L294.002 201.121L288.789 204.131ZM295.121 201.641L288.938 194.223L290.07 193.57L296.253 200.988L295.121 201.641ZM298.516 198.515L297.638 198.007L297.779 194.846C297.792 194.582 297.772 194.368 297.718 194.205C297.664 194.042 297.584 193.909 297.476 193.808C297.368 193.699 297.25 193.608 297.122 193.534C296.799 193.348 296.439 193.268 296.041 193.295C295.637 193.318 295.22 193.454 294.789 193.703C294.445 193.902 294.193 194.117 294.031 194.351C293.876 194.58 293.822 194.825 293.869 195.086L292.243 195.208C292.149 194.835 292.233 194.456 292.495 194.071C292.758 193.678 293.179 193.315 293.758 192.98C294.27 192.685 294.799 192.477 295.344 192.356C295.89 192.228 296.415 192.193 296.92 192.251C297.432 192.306 297.897 192.453 298.314 192.694C298.543 192.827 298.742 192.976 298.91 193.143C299.072 193.307 299.193 193.509 299.274 193.75C299.355 193.991 299.389 194.294 299.375 194.66L299.254 197.378L298.486 197.249L302.618 194.864L303.729 195.505L298.516 198.515ZM302.632 194.284L301.723 193.759L300.652 189.117L302.056 188.306L303.178 192.92L302.319 193.182L307.926 189.945L309.037 190.587L302.632 194.284ZM308.118 192.972L306.511 192.045L305.441 191.38L304.016 190.558L305.249 189.846L309.391 192.237L308.118 192.972Z" fill="white"/>
<g filter="url(#filter5_b_100_560)">
<path d="M103.603 190.716C100.569 188.964 100.57 186.123 103.606 184.371L131.089 168.504C134.125 166.752 139.046 166.751 142.08 168.503L158.562 178.018C161.596 179.769 161.595 182.61 158.559 184.363L131.075 200.229C128.04 201.981 123.119 201.982 120.085 200.231L103.603 190.716Z" fill="white" fill-opacity="0.3"/>
<path d="M104.024 190.473C101.222 188.855 101.223 186.232 104.027 184.614L131.51 168.747C134.314 167.129 138.858 167.128 141.659 168.746L158.141 178.261C160.942 179.878 160.942 182.501 158.138 184.12L130.654 199.986C127.851 201.604 123.307 201.605 120.506 199.988L104.024 190.473Z" stroke="white" stroke-opacity="0.3" stroke-width="0.972093"/>
</g>
<path d="M108.072 182.586L108.759 182.189L134.855 197.254L134.168 197.651L125.927 192.893L117.338 197.852L116.651 197.455L125.24 192.497L116.999 187.739L108.411 192.698L107.724 192.301L116.312 187.343L108.072 182.586Z" fill="white" fill-opacity="0.3"/>
<path d="M144.822 181.192L153.754 176.036L154.441 176.432L145.509 181.589L153.75 186.346L153.063 186.743L139.328 178.814C137.052 177.5 137.053 175.369 139.33 174.055L144.827 170.882L145.513 171.278L140.017 174.451C138.119 175.547 138.119 177.322 140.015 178.417L144.822 181.192Z" fill="white" fill-opacity="0.3"/>
<path d="M127.654 171.281L126.967 171.677L132.46 174.849L133.148 174.452L127.654 171.281Z" fill="white" fill-opacity="0.3"/>
<path fill-rule="evenodd" clip-rule="evenodd" d="M135.892 181.59C138.547 183.123 138.546 185.608 135.89 187.142C133.233 188.675 128.928 188.676 126.273 187.143C123.618 185.611 123.619 183.125 126.275 181.591C128.932 180.058 133.237 180.057 135.892 181.59ZM135.205 181.987C137.481 183.3 137.48 185.431 135.203 186.745C132.926 188.06 129.236 188.06 126.96 186.747C124.684 185.433 124.685 183.302 126.962 181.988C129.239 180.674 132.929 180.673 135.205 181.987Z" fill="white" fill-opacity="0.3"/>
<g clip-path="url(#clip2_100_560)">
<path d="M285.081 47.7303C285.699 47.7698 286.317 47.8887 286.867 48.0472C287.416 48.2058 287.965 48.4436 288.446 48.7212C288.927 48.9987 289.339 49.3159 289.614 49.6331C289.888 49.9503 290.094 50.3071 290.163 50.664C290.3 51.1399 291.055 51.4967 291.88 51.4172C292.704 51.3378 293.322 50.9015 293.185 50.4256C293.048 49.8705 292.773 49.3947 292.362 48.8395C291.95 48.2844 291.332 47.8483 290.645 47.4518C289.958 47.0554 289.134 46.7383 288.241 46.4608C287.417 46.223 286.455 46.0645 285.494 45.9853C284.669 45.9062 283.914 46.2632 283.776 46.7391C283.638 47.2149 284.256 47.6511 285.081 47.7303Z" fill="white"/>
<path d="M286.868 44.3989C288.997 44.6762 291.058 45.3104 292.706 46.2619C294.354 47.2134 295.453 48.4029 295.933 49.6321C296.07 50.108 296.963 50.3854 297.788 50.306C298.681 50.1869 299.093 49.711 298.956 49.2351C298.338 47.6886 297.034 46.2216 294.905 44.9926C292.845 43.8032 290.235 43.0105 287.556 42.654C286.732 42.5748 285.838 42.8525 285.701 43.3284C285.563 43.8043 285.975 44.2801 286.868 44.3989Z" fill="white"/>
<path d="M288.793 40.9089C291.884 41.3447 294.769 42.296 297.172 43.6836C299.576 45.0712 301.155 46.7762 301.978 48.5209C302.253 48.9967 303.009 49.2742 303.902 49.1551C304.726 48.9963 305.207 48.5601 305.001 48.0446C304.109 45.9429 302.255 44.0001 299.44 42.3746C296.624 40.7492 293.259 39.679 289.618 39.164C288.794 39.0055 287.969 39.3228 287.694 39.7987C287.488 40.3143 287.969 40.7504 288.793 40.9089Z" fill="white"/>
<path d="M290.718 37.419C294.702 38.0529 298.548 39.242 301.707 41.0657C304.866 42.8894 306.994 45.0701 308.024 47.4096C308.298 47.8855 309.054 48.163 309.947 48.0439C310.771 47.8851 311.252 47.4488 311.046 46.9333C309.811 44.3162 307.477 41.8579 303.906 39.7964C300.335 37.7348 296.076 36.3871 291.543 35.674C290.719 35.5155 289.894 35.8329 289.619 36.3088C289.344 36.7847 289.894 37.2605 290.718 37.419Z" fill="white"/>
</g>
<g clip-path="url(#clip3_100_560)">
<g filter="url(#filter6_b_100_560)">
<ellipse cx="18.1361" cy="18.1361" rx="18.1361" ry="18.1361" transform="matrix(0.866044 -0.499967 0.866044 0.499967 453.945 104.124)" fill="white" fill-opacity="0.3"/>
</g>
<g filter="url(#filter7_b_100_560)">
<path d="M520.541 83.8132C529.216 88.821 529.216 96.9403 520.541 101.948C511.867 106.956 497.803 106.956 489.128 101.948C480.454 96.9403 480.454 88.821 489.128 83.8132C497.803 78.8054 511.867 78.8054 520.541 83.8132Z" fill="white" fill-opacity="0.7"/>
</g>
<g filter="url(#filter8_b_100_560)">
<path d="M482.772 91.3877C482.013 95.1473 484.132 99.0638 489.128 101.948C494.124 104.832 500.908 106.055 507.421 105.617C508.18 101.858 506.061 97.9412 501.065 95.0569C496.069 92.1726 489.285 90.9495 482.772 91.3877Z" fill="white" fill-opacity="0.6"/>
</g>
</g>
<path d="M184.873 229.893C184.199 230.281 183.463 230.58 182.663 230.789C181.863 230.988 181.046 231.095 180.213 231.11C179.379 231.115 178.567 231.025 177.776 230.84C176.984 230.656 176.26 230.374 175.604 229.995C174.947 229.615 174.459 229.198 174.139 228.741C173.819 228.284 173.672 227.815 173.697 227.334C173.714 226.848 173.899 226.376 174.252 225.919C174.598 225.458 175.111 225.03 175.793 224.636C176.517 224.218 177.304 223.91 178.155 223.71C178.996 223.506 179.868 223.426 180.769 223.47L180.705 224.658C180.04 224.644 179.426 224.702 178.862 224.833C178.289 224.959 177.772 225.156 177.308 225.424C176.845 225.691 176.496 225.98 176.26 226.291C176.033 226.597 175.915 226.913 175.907 227.239C175.907 227.56 176.016 227.876 176.235 228.187C176.462 228.493 176.803 228.777 177.258 229.04C177.713 229.302 178.205 229.499 178.735 229.63C179.274 229.756 179.821 229.82 180.377 229.82C180.941 229.815 181.488 229.747 182.019 229.615C182.558 229.479 183.058 229.278 183.522 229.01C183.985 228.743 184.33 228.447 184.557 228.121C184.776 227.79 184.869 227.431 184.835 227.042L186.906 227.013C186.973 227.528 186.834 228.031 186.489 228.522C186.144 229.013 185.605 229.47 184.873 229.893ZM189.83 226.885L180.99 221.782L184.627 219.682C185.41 219.23 186.206 218.917 187.014 218.742C187.831 218.562 188.626 218.521 189.401 218.618C190.175 218.715 190.887 218.951 191.535 219.325C192.183 219.699 192.591 220.11 192.76 220.557C192.92 220.999 192.844 221.456 192.532 221.927C192.221 222.389 191.674 222.846 190.891 223.298L188.163 224.873L188.151 224.02L191.472 225.937L189.83 226.885ZM195.614 223.546L190.171 222.985L191.926 221.971L197.382 222.525L195.614 223.546ZM188.327 224.122L186.812 224.093L189.464 222.562C190.188 222.144 190.575 221.74 190.626 221.352C190.685 220.958 190.436 220.601 189.881 220.28C189.317 219.954 188.698 219.811 188.024 219.85C187.359 219.884 186.665 220.11 185.941 220.528L183.289 222.059L183.213 221.169L188.327 224.122ZM195.417 217.696L199.812 215.159L201.163 215.939L196.769 218.476L195.417 217.696ZM199.332 219.81L204.32 216.93L205.697 217.725L199.067 221.552L190.227 216.449L196.68 212.724L198.057 213.519L193.245 216.296L199.332 219.81ZM207.527 216.669L198.687 211.565L202.551 209.335C203.511 208.781 204.538 208.401 205.632 208.197C206.727 207.993 207.805 207.964 208.865 208.11C209.926 208.256 210.903 208.586 211.795 209.101C212.679 209.612 213.251 210.175 213.512 210.793C213.765 211.405 213.714 212.027 213.361 212.659C213.007 213.291 212.351 213.884 211.391 214.438L207.527 216.669ZM207.779 214.919L209.926 213.68C210.591 213.296 211.037 212.892 211.265 212.469C211.5 212.042 211.521 211.621 211.328 211.208C211.143 210.79 210.747 210.406 210.141 210.056C209.526 209.702 208.861 209.473 208.145 209.371C207.43 209.259 206.702 209.271 205.961 209.408C205.228 209.539 204.53 209.796 203.865 210.18L201.718 211.42L207.779 214.919ZM217.96 210.646L209.12 205.542L210.762 204.595L219.601 209.698L217.96 210.646ZM223.786 207.282L216.335 202.981L213.405 204.672L212.016 203.871L219.517 199.54L220.906 200.342L217.977 202.033L225.427 206.335L223.786 207.282ZM237.297 199.628C236.623 200.017 235.887 200.316 235.087 200.525C234.287 200.724 233.47 200.831 232.637 200.846C231.803 200.85 230.991 200.761 230.2 200.576C229.408 200.391 228.684 200.109 228.028 199.73C227.371 199.351 226.883 198.933 226.563 198.476C226.243 198.019 226.096 197.55 226.121 197.069C226.138 196.583 226.323 196.112 226.676 195.655C227.022 195.193 227.535 194.766 228.217 194.372C228.941 193.954 229.728 193.645 230.579 193.446C231.42 193.242 232.292 193.162 233.193 193.205L233.129 194.394C232.464 194.379 231.85 194.437 231.286 194.569C230.713 194.695 230.195 194.892 229.732 195.159C229.269 195.427 228.92 195.716 228.684 196.027C228.457 196.333 228.339 196.649 228.331 196.974C228.331 197.295 228.44 197.611 228.659 197.922C228.886 198.228 229.227 198.513 229.682 198.775C230.137 199.038 230.629 199.234 231.159 199.366C231.698 199.492 232.245 199.555 232.801 199.555C233.365 199.55 233.912 199.482 234.443 199.351C234.982 199.215 235.482 199.013 235.946 198.746C236.409 198.479 236.754 198.182 236.981 197.857C237.2 197.526 237.293 197.166 237.259 196.778L239.33 196.748C239.397 197.264 239.258 197.767 238.913 198.258C238.568 198.748 238.029 199.205 237.297 199.628ZM240.819 197.449L235.957 190.049L237.573 189.116L250.404 191.916L248.686 192.907L237.296 190.283L237.952 189.904L242.511 196.472L240.819 197.449ZM240.604 195.211L239.758 194.212L244.532 191.456L246.262 191.945L240.604 195.211ZM251.528 191.267L242.688 186.164L246.325 184.064C247.108 183.612 247.904 183.298 248.712 183.124C249.528 182.944 250.324 182.902 251.098 183C251.873 183.097 252.584 183.333 253.233 183.707C253.881 184.081 254.289 184.492 254.458 184.939C254.618 185.381 254.542 185.838 254.23 186.309C253.919 186.771 253.372 187.228 252.589 187.68L249.861 189.255L249.848 188.402L253.169 190.319L251.528 191.267ZM257.312 187.928L251.869 187.366L253.624 186.353L259.079 186.907L257.312 187.928ZM250.025 188.504L248.51 188.475L251.162 186.944C251.886 186.526 252.273 186.122 252.323 185.733C252.382 185.34 252.134 184.983 251.578 184.662C251.014 184.336 250.396 184.193 249.722 184.232C249.057 184.266 248.362 184.492 247.638 184.91L244.986 186.441L244.911 185.551L250.025 188.504ZM260.765 185.934L251.925 180.831L255.789 178.6C256.749 178.046 257.776 177.667 258.87 177.463C259.965 177.259 261.042 177.23 262.103 177.376C263.164 177.521 264.141 177.852 265.033 178.367C265.917 178.877 266.489 179.441 266.75 180.058C267.003 180.671 266.952 181.293 266.599 181.925C266.245 182.557 265.589 183.149 264.629 183.704L260.765 185.934ZM261.017 184.185L263.164 182.945C263.829 182.561 264.275 182.158 264.503 181.735C264.738 181.307 264.759 180.887 264.566 180.474C264.38 180.056 263.985 179.672 263.379 179.322C262.764 178.967 262.099 178.739 261.383 178.637C260.668 178.525 259.94 178.537 259.199 178.673C258.466 178.804 257.768 179.062 257.102 179.446L254.956 180.685L261.017 184.185Z" fill="white"/>
</g>
<rect x="2.10469" width="338.718" height="211.669" rx="18.2267" transform="matrix(0.866044 -0.499967 0.866044 0.499967 0.512892 171.757)" stroke="url(#paint0_linear_100_560)" stroke-width="2.43023"/>
<defs>
<filter id="filter0_f_100_560" x="-5.74294" y="14.6689" width="480.605" height="312.048" filterUnits="userSpaceOnUse" color-interpolation-filters="sRGB">
<feFlood flood-opacity="0" result="BackgroundImageFix"/>
<feBlend mode="normal" in="SourceGraphic" in2="BackgroundImageFix" result="shape"/>
<feGaussianBlur stdDeviation="51.0349" result="effect1_foregroundBlur_100_560"/>
</filter>
<filter id="filter1_f_100_560" x="-98.439" y="53.8699" width="374.639" height="290.242" filterUnits="userSpaceOnUse" color-interpolation-filters="sRGB">
<feFlood flood-opacity="0" result="BackgroundImageFix"/>
<feBlend mode="normal" in="SourceGraphic" in2="BackgroundImageFix" result="shape"/>
<feGaussianBlur stdDeviation="43.7442" result="effect1_foregroundBlur_100_560"/>
</filter>
<filter id="filter2_f_100_560" x="112.648" y="5.20774" width="780.131" height="297.53" filterUnits="userSpaceOnUse" color-interpolation-filters="sRGB">
<feFlood flood-opacity="0" result="BackgroundImageFix"/>
<feBlend mode="normal" in="SourceGraphic" in2="BackgroundImageFix" result="shape"/>
<feGaussianBlur stdDeviation="36.4535" result="effect1_foregroundBlur_100_560"/>
</filter>
<filter id="filter3_f_100_560" x="-233.482" y="20.7271" width="1128.63" height="458.706" filterUnits="userSpaceOnUse" color-interpolation-filters="sRGB">
<feFlood flood-opacity="0" result="BackgroundImageFix"/>
<feBlend mode="normal" in="SourceGraphic" in2="BackgroundImageFix" result="shape"/>
<feGaussianBlur stdDeviation="51.0349" result="effect1_foregroundBlur_100_560"/>
</filter>
<filter id="filter4_f_100_560" x="256.108" y="61.7939" width="369.941" height="262.875" filterUnits="userSpaceOnUse" color-interpolation-filters="sRGB">
<feFlood flood-opacity="0" result="BackgroundImageFix"/>
<feBlend mode="normal" in="SourceGraphic" in2="BackgroundImageFix" result="shape"/>
<feGaussianBlur stdDeviation="29.1628" result="effect1_foregroundBlur_100_560"/>
</filter>
<filter id="filter5_b_100_560" x="89.177" y="155.038" width="83.8109" height="58.6566" filterUnits="userSpaceOnUse" color-interpolation-filters="sRGB">
<feFlood flood-opacity="0" result="BackgroundImageFix"/>
<feGaussianBlur in="BackgroundImageFix" stdDeviation="6.07558"/>
<feComposite in2="SourceAlpha" operator="in" result="effect1_backgroundBlur_100_560"/>
<feBlend mode="normal" in="SourceGraphic" in2="effect1_backgroundBlur_100_560" result="shape"/>
</filter>
<filter id="filter6_b_100_560" x="438.844" y="66.9988" width="93.0297" height="74.2512" filterUnits="userSpaceOnUse" color-interpolation-filters="sRGB">
<feFlood flood-opacity="0" result="BackgroundImageFix"/>
<feGaussianBlur in="BackgroundImageFix" stdDeviation="12.1512"/>
<feComposite in2="SourceAlpha" operator="in" result="effect1_backgroundBlur_100_560"/>
<feBlend mode="normal" in="SourceGraphic" in2="effect1_backgroundBlur_100_560" result="shape"/>
</filter>
<filter id="filter7_b_100_560" x="458.32" y="55.7551" width="93.0297" height="74.2512" filterUnits="userSpaceOnUse" color-interpolation-filters="sRGB">
<feFlood flood-opacity="0" result="BackgroundImageFix"/>
<feGaussianBlur in="BackgroundImageFix" stdDeviation="12.1512"/>
<feComposite in2="SourceAlpha" operator="in" result="effect1_backgroundBlur_100_560"/>
<feBlend mode="normal" in="SourceGraphic" in2="effect1_backgroundBlur_100_560" result="shape"/>
</filter>
<filter id="filter8_b_100_560" x="458.32" y="66.9987" width="73.5535" height="63.0076" filterUnits="userSpaceOnUse" color-interpolation-filters="sRGB">
<feFlood flood-opacity="0" result="BackgroundImageFix"/>
<feGaussianBlur in="BackgroundImageFix" stdDeviation="12.1512"/>
<feComposite in2="SourceAlpha" operator="in" result="effect1_backgroundBlur_100_560"/>
<feBlend mode="normal" in="SourceGraphic" in2="effect1_backgroundBlur_100_560" result="shape"/>
</filter>
<linearGradient id="paint0_linear_100_560" x1="-2.54175e-06" y1="107.05" x2="341.148" y2="107.05" gradientUnits="userSpaceOnUse">
<stop stop-color="white" stop-opacity="0.8"/>
<stop offset="1" stop-color="white" stop-opacity="0.1"/>
</linearGradient>
<clipPath id="clip0_100_560">
<rect width="341.148" height="214.1" rx="19.4419" transform="matrix(0.866044 -0.499967 0.866044 0.499967 0.230957 170.705)" fill="white"/>
</clipPath>
<clipPath id="clip1_100_560">
<rect width="419.944" height="262.465" fill="white" transform="matrix(0.866044 -0.499967 0.866044 0.499967 0.230957 170.705)"/>
</clipPath>
<clipPath id="clip2_100_560">
<rect width="25.3878" height="25.3748" fill="white" transform="matrix(0.866044 -0.499967 0.866044 0.499967 273.679 44.5595)"/>
</clipPath>
<clipPath id="clip3_100_560">
<rect width="72.5442" height="48.6046" rx="3.88837" transform="matrix(0.866044 -0.499967 0.866044 0.499967 442.636 104.85)" fill="white"/>
</clipPath>
</defs>
</svg>
