<svg width="481" height="278" viewBox="0 0 481 278" fill="none" xmlns="http://www.w3.org/2000/svg">
<g clip-path="url(#clip0_100_612)">
<g clip-path="url(#clip1_100_612)">
<rect width="419.944" height="262.465" transform="matrix(-0.866044 0.499967 -0.866044 -0.499967 591.127 91.8284)" fill="black"/>
<g filter="url(#filter0_f_100_612)">
<path d="M461.606 89.7247C485.166 128.085 465.21 166.831 422.284 206.854C369.741 255.843 221.507 370.723 129.577 356.047C66.2886 345.944 94.8089 297.794 134.881 267.401C246.972 182.386 248.874 90.6654 321.612 60.5925C373.222 39.2546 438.836 52.6502 461.606 89.7247Z" fill="url(#paint0_linear_100_612)"/>
</g>
<g filter="url(#filter1_f_100_612)">
<circle cx="74.3651" cy="74.3651" r="74.3651" transform="matrix(-0.866044 0.499967 -0.866044 -0.499967 356.749 138.486)" fill="#FF29A8"/>
</g>
<g filter="url(#filter2_f_100_612)">
<circle cx="116.214" cy="116.214" r="116.214" transform="matrix(-0.866044 0.499967 -0.866044 -0.499967 370.135 35.9854)" fill="#FF4473"/>
</g>
<g filter="url(#filter3_f_100_612)">
<ellipse cx="184.455" cy="131.087" rx="184.455" ry="131.087" transform="matrix(-0.866044 0.499967 -0.866044 -0.499967 318.107 169.834)" fill="#FF3D00"/>
</g>
<g filter="url(#filter4_f_100_612)">
<ellipse cx="167.54" cy="118.984" rx="167.54" ry="118.984" transform="matrix(-0.866044 0.499967 -0.866044 -0.499967 241.076 159.19)" fill="#FFBB00"/>
</g>
<g filter="url(#filter5_f_100_612)">
<ellipse cx="159.675" cy="63.2423" rx="159.675" ry="63.2423" transform="matrix(-0.590307 0.619517 -1.07313 -0.340784 480.935 195.055)" fill="white"/>
</g>
</g>
<path d="M210.089 249.364L203.018 245.282L204.099 244.658L212.352 245.853L211.787 246.18L209.665 241.444L210.746 240.82L217.828 244.897L216.585 245.614L211.453 242.663L211.716 242.511L213.443 246.495L212.857 246.833L205.917 245.859L206.22 245.684L211.342 248.641L210.089 249.364ZM219.617 243.864L214.222 240.749L215.485 240.02L220.88 243.135L219.617 243.864ZM213.97 239.869C213.734 240.005 213.464 240.075 213.161 240.079C212.865 240.079 212.612 240.019 212.404 239.898C212.188 239.774 212.084 239.628 212.09 239.461C212.097 239.286 212.218 239.13 212.454 238.994C212.69 238.858 212.953 238.788 213.242 238.784C213.532 238.772 213.781 238.827 213.99 238.947C214.212 239.076 214.327 239.227 214.333 239.402C214.333 239.573 214.212 239.729 213.97 239.869ZM225.083 240.79C224.517 241.117 223.894 241.34 223.214 241.461C222.534 241.573 221.86 241.581 221.193 241.484C220.527 241.387 219.927 241.185 219.395 240.877C218.856 240.566 218.506 240.22 218.345 239.839C218.176 239.454 218.193 239.068 218.395 238.679C218.604 238.286 218.991 237.926 219.557 237.6C220.082 237.296 220.651 237.092 221.264 236.987C221.877 236.875 222.493 236.877 223.113 236.993L222.709 237.88C222.291 237.825 221.904 237.831 221.547 237.897C221.197 237.959 220.887 238.068 220.618 238.224C220.308 238.403 220.096 238.603 219.981 238.825C219.867 239.046 219.867 239.272 219.981 239.501C220.089 239.727 220.318 239.94 220.668 240.143C221.018 240.345 221.392 240.479 221.79 240.545C222.18 240.607 222.567 240.605 222.951 240.539C223.335 240.473 223.682 240.351 223.992 240.172C224.261 240.016 224.45 239.837 224.558 239.635C224.672 239.429 224.682 239.206 224.588 238.964L226.123 238.731C226.319 239.085 226.326 239.443 226.144 239.804C225.962 240.158 225.608 240.487 225.083 240.79ZM228.186 237.529L226.63 236.596L226.843 233.464L228.358 232.589L228.368 235.359L228.257 236.065L228.186 237.529ZM228.358 238.818L220.862 234.49L222.125 233.761L229.621 238.089L228.358 238.818ZM232.429 236.467L228.025 236.199L227.812 235.155L233.965 235.581L232.429 236.467ZM241.098 231.579C240.546 231.898 239.95 232.141 239.31 232.308C238.67 232.468 238.017 232.553 237.35 232.565C236.677 232.573 236.023 232.503 235.39 232.355C234.757 232.207 234.178 231.982 233.653 231.678C233.127 231.375 232.737 231.041 232.481 230.675C232.225 230.31 232.107 229.935 232.127 229.55C232.147 229.157 232.302 228.776 232.592 228.407C232.875 228.033 233.292 227.687 233.845 227.368C234.444 227.022 235.081 226.768 235.754 226.604C236.434 226.437 237.128 226.367 237.835 226.395L237.815 227.339C237.263 227.339 236.761 227.396 236.31 227.508C235.858 227.613 235.441 227.777 235.057 227.998C234.687 228.212 234.404 228.445 234.208 228.698C234.013 228.951 233.912 229.208 233.905 229.468C233.899 229.729 233.983 229.983 234.158 230.232C234.34 230.477 234.612 230.704 234.976 230.914C235.333 231.121 235.724 231.276 236.148 231.381C236.579 231.482 237.024 231.533 237.482 231.533C237.933 231.529 238.374 231.472 238.805 231.364C239.236 231.255 239.64 231.091 240.017 230.874C240.367 230.671 240.65 230.446 240.866 230.197C241.081 229.94 241.206 229.651 241.24 229.328L242.967 229.462C242.893 229.847 242.688 230.226 242.351 230.6C242.014 230.965 241.597 231.292 241.098 231.579ZM241.553 230.08L238.906 228.552L240.149 227.835L242.967 229.462L241.553 230.08ZM248.7 227.074L247.609 226.444L247.306 226.351L245.396 225.249C245.026 225.035 244.629 224.934 244.204 224.945C243.773 224.953 243.332 225.087 242.881 225.348C242.578 225.523 242.325 225.723 242.123 225.949C241.928 226.17 241.813 226.388 241.78 226.602L240.365 226.357C240.433 226.061 240.611 225.768 240.901 225.476C241.19 225.177 241.551 224.903 241.982 224.654C242.763 224.203 243.554 223.964 244.356 223.936C245.157 223.901 245.949 224.109 246.73 224.561L249.892 226.386L248.7 227.074ZM247.073 228.095C246.669 228.328 246.248 228.493 245.811 228.591C245.366 228.684 244.938 228.709 244.528 228.666C244.117 228.616 243.756 228.501 243.447 228.322C243.144 228.147 242.942 227.949 242.841 227.727C242.746 227.502 242.793 227.253 242.982 226.981C243.171 226.709 243.538 226.415 244.083 226.1L245.649 225.196L246.488 225.68L245.013 226.532C244.582 226.781 244.363 226.989 244.356 227.156C244.342 227.319 244.437 227.459 244.639 227.576C244.868 227.708 245.141 227.76 245.457 227.733C245.774 227.706 246.094 227.599 246.417 227.412C246.727 227.234 246.932 227.033 247.033 226.812C247.141 226.586 247.111 226.363 246.942 226.141L247.912 226.456C248.107 226.709 248.134 226.977 247.993 227.261C247.858 227.541 247.552 227.819 247.073 228.095ZM251.513 225.45L246.118 222.336L247.32 221.642L248.805 222.499L248.229 222.33C248.027 222.027 248.004 221.722 248.159 221.415C248.32 221.103 248.66 220.798 249.179 220.499L250.381 221.193C250.314 221.216 250.257 221.241 250.21 221.269C250.156 221.292 250.105 221.317 250.058 221.345C249.58 221.621 249.341 221.922 249.341 222.249C249.334 222.571 249.607 222.892 250.159 223.211L252.776 224.721L251.513 225.45ZM258.01 221.781C257.492 222.08 256.909 222.285 256.262 222.393C255.616 222.495 254.969 222.495 254.323 222.393C253.676 222.292 253.073 222.08 252.514 221.758C251.955 221.435 251.588 221.087 251.413 220.714C251.238 220.34 251.242 219.969 251.423 219.6C251.612 219.227 251.966 218.89 252.484 218.591C252.935 218.33 253.441 218.155 254 218.066C254.552 217.973 255.134 217.982 255.747 218.095C256.36 218.208 256.983 218.447 257.616 218.812C258.243 219.174 258.66 219.532 258.869 219.886C259.071 220.236 259.095 220.572 258.94 220.895C258.785 221.217 258.475 221.513 258.01 221.781ZM257.081 221.07C257.384 220.895 257.586 220.7 257.687 220.486C257.795 220.269 257.791 220.045 257.677 219.816C257.569 219.582 257.343 219.367 257 219.168C256.65 218.966 256.276 218.836 255.879 218.777C255.481 218.711 255.094 218.709 254.717 218.772C254.346 218.83 254.01 218.947 253.707 219.122C253.403 219.297 253.198 219.493 253.09 219.711C252.989 219.924 252.993 220.148 253.1 220.381C253.208 220.607 253.437 220.821 253.787 221.023C254.131 221.221 254.501 221.353 254.899 221.419C255.303 221.482 255.69 221.484 256.06 221.425C256.438 221.363 256.778 221.244 257.081 221.07ZM259.728 220.708L258.455 219.973L257.071 219.116L255.535 218.346L252.181 216.41L253.434 215.686L260.93 220.014L259.728 220.708ZM265.067 219.97C264.804 220.122 264.498 220.248 264.148 220.349C263.798 220.45 263.457 220.507 263.127 220.518L262.703 219.69C262.946 219.682 263.181 219.651 263.41 219.597C263.639 219.542 263.838 219.466 264.006 219.369C264.235 219.237 264.363 219.097 264.39 218.949C264.417 218.802 264.357 218.615 264.208 218.389L263.814 217.8L263.764 217.655L261.036 213.724L262.248 213.024L265.552 217.847C265.788 218.178 265.919 218.471 265.946 218.728C265.98 218.98 265.916 219.208 265.754 219.41C265.599 219.608 265.37 219.795 265.067 219.97ZM264.34 218.267L256.318 216.447L257.632 215.689L264.269 217.235L264.34 218.267Z" fill="white"/>
<path d="M286.064 205.504L279.497 201.713L280.669 201.725L278.598 202.921L277.497 202.285L280.305 200.663L287.377 204.746L286.064 205.504ZM288.689 203.989L287.81 203.481L287.951 200.32C287.965 200.056 287.945 199.842 287.891 199.679C287.837 199.515 287.756 199.383 287.648 199.282C287.541 199.173 287.423 199.082 287.295 199.008C286.971 198.821 286.611 198.742 286.214 198.769C285.81 198.792 285.392 198.928 284.961 199.177C284.618 199.375 284.365 199.591 284.203 199.824C284.048 200.054 283.995 200.299 284.042 200.559L282.415 200.682C282.321 200.309 282.405 199.929 282.668 199.545C282.93 199.152 283.351 198.788 283.931 198.454C284.442 198.158 284.971 197.95 285.517 197.83C286.062 197.702 286.588 197.667 287.093 197.725C287.605 197.779 288.069 197.927 288.487 198.168C288.716 198.3 288.915 198.45 289.083 198.617C289.245 198.781 289.366 198.983 289.447 199.224C289.527 199.465 289.561 199.768 289.548 200.134L289.426 202.851L288.659 202.723L292.791 200.338L293.902 200.979L288.689 203.989ZM295.021 201.499L288.838 194.081L289.97 193.428L296.153 200.846L295.021 201.499ZM298.416 198.373L297.538 197.865L297.679 194.704C297.692 194.44 297.672 194.226 297.618 194.063C297.565 193.9 297.484 193.767 297.376 193.666C297.268 193.557 297.15 193.466 297.022 193.392C296.699 193.206 296.339 193.126 295.941 193.153C295.537 193.176 295.12 193.313 294.689 193.561C294.345 193.76 294.093 193.975 293.931 194.209C293.776 194.438 293.722 194.683 293.769 194.944L292.143 195.066C292.049 194.693 292.133 194.314 292.395 193.929C292.658 193.536 293.079 193.173 293.658 192.838C294.17 192.543 294.699 192.335 295.244 192.214C295.79 192.086 296.315 192.051 296.82 192.109C297.332 192.164 297.797 192.311 298.214 192.552C298.443 192.685 298.642 192.834 298.81 193.001C298.972 193.165 299.093 193.367 299.174 193.608C299.255 193.849 299.289 194.152 299.275 194.518L299.154 197.236L298.386 197.107L302.518 194.722L303.629 195.363L298.416 198.373ZM302.532 194.142L301.623 193.617L300.552 188.975L301.956 188.164L303.078 192.778L302.219 193.04L307.826 189.803L308.937 190.445L302.532 194.142ZM308.018 192.83L306.411 191.903L305.341 191.238L303.916 190.416L305.149 189.704L309.291 192.095L308.018 192.83Z" fill="white"/>
<g filter="url(#filter6_b_100_612)">
<path d="M103.503 190.574C100.469 188.822 100.47 185.981 103.506 184.229L130.989 168.362C134.025 166.61 138.946 166.609 141.98 168.361L158.462 177.876C161.496 179.627 161.495 182.468 158.459 184.221L130.975 200.087C127.94 201.839 123.019 201.84 119.985 200.089L103.503 190.574Z" fill="white" fill-opacity="0.3"/>
<path d="M103.924 190.331C101.122 188.713 101.123 186.09 103.927 184.472L131.41 168.605C134.214 166.987 138.758 166.986 141.559 168.604L158.041 178.119C160.842 179.736 160.842 182.359 158.038 183.978L130.554 199.844C127.751 201.462 123.207 201.463 120.406 199.846L103.924 190.331Z" stroke="white" stroke-opacity="0.3" stroke-width="0.972093"/>
</g>
<path d="M107.972 182.444L108.659 182.047L134.755 197.112L134.068 197.509L125.827 192.751L117.238 197.71L116.551 197.313L125.14 192.355L116.899 187.597L108.311 192.556L107.624 192.159L116.212 187.201L107.972 182.444Z" fill="white" fill-opacity="0.3"/>
<path d="M144.722 181.05L153.654 175.894L154.341 176.29L145.409 181.447L153.65 186.204L152.963 186.601L139.228 178.672C136.952 177.358 136.953 175.227 139.23 173.913L144.727 170.74L145.413 171.136L139.917 174.309C138.019 175.405 138.019 177.18 139.915 178.275L144.722 181.05Z" fill="white" fill-opacity="0.3"/>
<path d="M127.554 171.139L126.867 171.535L132.36 174.707L133.048 174.31L127.554 171.139Z" fill="white" fill-opacity="0.3"/>
<path fill-rule="evenodd" clip-rule="evenodd" d="M135.792 181.448C138.447 182.981 138.446 185.466 135.79 187C133.133 188.533 128.828 188.534 126.173 187.001C123.518 185.469 123.519 182.983 126.175 181.449C128.832 179.916 133.137 179.915 135.792 181.448ZM135.105 181.845C137.381 183.158 137.38 185.289 135.103 186.603C132.826 187.918 129.136 187.918 126.86 186.605C124.584 185.291 124.585 183.16 126.862 181.846C129.139 180.531 132.829 180.531 135.105 181.845Z" fill="white" fill-opacity="0.3"/>
<g clip-path="url(#clip2_100_612)">
<path d="M284.981 47.5882C285.599 47.6278 286.217 47.7467 286.767 47.9052C287.316 48.0638 287.865 48.3016 288.346 48.5791C288.827 48.8566 289.239 49.1738 289.514 49.491C289.788 49.8082 289.994 50.1651 290.063 50.522C290.2 50.9978 290.955 51.3546 291.78 51.2752C292.604 51.1958 293.222 50.7595 293.085 50.2836C292.948 49.7285 292.673 49.2526 292.262 48.6975C291.85 48.1424 291.232 47.7063 290.545 47.3098C289.858 46.9134 289.034 46.5962 288.141 46.3188C287.317 46.081 286.355 45.9225 285.394 45.8433C284.569 45.7641 283.814 46.1211 283.676 46.597C283.538 47.0729 284.156 47.509 284.981 47.5882Z" fill="white"/>
<path d="M286.768 44.2569C288.898 44.5342 290.958 45.1683 292.606 46.1198C294.254 47.0713 295.353 48.2608 295.833 49.4901C295.97 49.9659 296.863 50.2434 297.688 50.164C298.581 50.0449 298.993 49.5689 298.856 49.0931C298.238 47.5466 296.934 46.0795 294.805 44.8505C292.745 43.6612 290.135 42.8684 287.456 42.5119C286.632 42.4327 285.739 42.7105 285.601 43.1864C285.463 43.6622 285.875 44.1381 286.768 44.2569Z" fill="white"/>
<path d="M288.693 40.7669C291.784 41.2027 294.669 42.154 297.072 43.5416C299.476 44.9292 301.055 46.6341 301.879 48.3789C302.153 48.8547 302.909 49.1322 303.802 49.0131C304.626 48.8543 305.107 48.418 304.901 47.9025C304.009 45.8009 302.155 43.8581 299.34 42.2326C296.524 40.6071 293.159 39.5369 289.518 39.0219C288.694 38.8634 287.869 39.1808 287.595 39.6567C287.388 40.1723 287.869 40.6084 288.693 40.7669Z" fill="white"/>
<path d="M290.618 37.2769C294.602 37.9109 298.448 39.1 301.607 40.9236C304.766 42.7473 306.894 44.9281 307.924 47.2676C308.198 47.7434 308.954 48.0209 309.847 47.9018C310.671 47.7431 311.152 47.3068 310.946 46.7913C309.711 44.1742 307.377 41.7159 303.806 39.6543C300.235 37.5928 295.976 36.2451 291.443 35.532C290.619 35.3735 289.794 35.6908 289.519 36.1668C289.244 36.6427 289.794 37.1184 290.618 37.2769Z" fill="white"/>
</g>
<g clip-path="url(#clip3_100_612)">
<g filter="url(#filter7_b_100_612)">
<ellipse cx="18.1361" cy="18.1361" rx="18.1361" ry="18.1361" transform="matrix(0.866044 -0.499967 0.866044 0.499967 453.845 103.982)" fill="white" fill-opacity="0.3"/>
</g>
<g filter="url(#filter8_b_100_612)">
<path d="M520.441 83.6714C529.116 88.6792 529.116 96.7985 520.441 101.806C511.767 106.814 497.703 106.814 489.028 101.806C480.354 96.7985 480.354 88.6792 489.028 83.6714C497.703 78.6636 511.767 78.6636 520.441 83.6714Z" fill="white" fill-opacity="0.7"/>
</g>
<g filter="url(#filter9_b_100_612)">
<path d="M482.673 91.2457C481.914 95.0054 484.032 98.9218 489.028 101.806C494.024 104.69 500.809 105.913 507.321 105.475C508.08 101.716 505.962 97.7992 500.965 94.9149C495.969 92.0306 489.185 90.8075 482.673 91.2457Z" fill="white" fill-opacity="0.6"/>
</g>
</g>
<path d="M180.555 232.04L171.715 226.937L175.579 224.706C176.539 224.152 177.566 223.773 178.661 223.568C179.755 223.364 180.833 223.335 181.894 223.481C182.954 223.627 183.931 223.957 184.823 224.472C185.707 224.983 186.28 225.547 186.541 226.164C186.793 226.776 186.743 227.398 186.389 228.03C186.036 228.662 185.379 229.255 184.419 229.809L180.555 232.04ZM180.808 230.29L182.954 229.051C183.619 228.667 184.066 228.263 184.293 227.84C184.529 227.413 184.55 226.992 184.356 226.579C184.171 226.161 183.775 225.777 183.169 225.427C182.554 225.073 181.889 224.844 181.174 224.742C180.458 224.63 179.73 224.643 178.989 224.779C178.257 224.91 177.558 225.167 176.893 225.551L174.746 226.791L180.808 230.29ZM187.338 222.16L191.733 219.623L193.084 220.403L188.69 222.94L187.338 222.16ZM191.253 224.274L196.241 221.395L197.618 222.189L190.988 226.017L182.148 220.914L188.601 217.188L189.978 217.983L185.166 220.76L191.253 224.274ZM199.448 221.133L190.608 216.03L194.75 213.638C195.811 213.026 196.83 212.681 197.806 212.603C198.774 212.521 199.608 212.681 200.307 213.084C200.778 213.357 201.073 213.653 201.19 213.974C201.3 214.29 201.262 214.608 201.077 214.929C200.892 215.24 200.584 215.519 200.155 215.767L199.928 215.374C200.424 215.087 200.963 214.883 201.544 214.761C202.117 214.635 202.689 214.606 203.262 214.674C203.842 214.737 204.39 214.917 204.903 215.213C205.661 215.651 205.96 216.158 205.8 216.737C205.64 217.315 204.987 217.935 203.842 218.596L199.448 221.133ZM199.801 219.441L202.453 217.911C203.068 217.556 203.438 217.225 203.565 216.919C203.691 216.613 203.531 216.331 203.085 216.073C202.647 215.821 202.163 215.731 201.632 215.804C201.094 215.872 200.517 216.083 199.902 216.438L197.124 218.042L195.849 217.305L198.299 215.891C198.871 215.561 199.208 215.25 199.309 214.958C199.418 214.662 199.271 214.397 198.867 214.163C198.454 213.925 197.991 213.838 197.478 213.901C196.973 213.959 196.434 214.154 195.861 214.484L193.538 215.826L199.801 219.441ZM209.055 215.587L200.215 210.484L201.857 209.536L210.696 214.639L209.055 215.587ZM214.88 212.224L207.43 207.922L204.5 209.614L203.111 208.812L210.612 204.481L212.001 205.283L209.071 206.975L216.522 211.276L214.88 212.224ZM228.392 204.569C227.718 204.958 226.981 205.257 226.182 205.466C225.382 205.665 224.565 205.772 223.732 205.787C222.898 205.792 222.086 205.702 221.295 205.517C220.503 205.332 219.779 205.051 219.123 204.671C218.466 204.292 217.978 203.874 217.658 203.418C217.338 202.961 217.19 202.492 217.216 202.011C217.233 201.524 217.418 201.053 217.771 200.596C218.116 200.134 218.63 199.707 219.312 199.313C220.036 198.895 220.823 198.587 221.673 198.387C222.515 198.183 223.387 198.103 224.287 198.147L224.224 199.335C223.559 199.32 222.945 199.379 222.381 199.51C221.808 199.636 221.29 199.833 220.827 200.1C220.364 200.368 220.015 200.657 219.779 200.968C219.552 201.274 219.434 201.59 219.426 201.916C219.426 202.237 219.535 202.552 219.754 202.863C219.981 203.17 220.322 203.454 220.777 203.716C221.231 203.979 221.724 204.176 222.254 204.307C222.793 204.433 223.34 204.496 223.896 204.496C224.46 204.492 225.007 204.424 225.538 204.292C226.076 204.156 226.577 203.955 227.04 203.687C227.503 203.42 227.849 203.123 228.076 202.798C228.295 202.467 228.387 202.108 228.354 201.719L230.425 201.69C230.492 202.205 230.353 202.708 230.008 203.199C229.663 203.69 229.124 204.147 228.392 204.569ZM231.914 202.39L227.052 194.991L228.668 194.058L241.498 196.857L239.781 197.848L228.39 195.224L229.047 194.845L233.606 201.413L231.914 202.39ZM231.699 200.152L230.853 199.153L235.626 196.398L237.356 196.886L231.699 200.152ZM242.623 196.208L233.783 191.105L237.42 189.005C238.203 188.553 238.998 188.24 239.807 188.065C240.623 187.885 241.419 187.844 242.193 187.941C242.968 188.038 243.679 188.274 244.327 188.648C244.976 189.022 245.384 189.433 245.552 189.88C245.712 190.322 245.637 190.779 245.325 191.251C245.014 191.712 244.466 192.169 243.683 192.621L240.956 194.196L240.943 193.343L244.264 195.26L242.623 196.208ZM248.406 192.869L242.964 192.308L244.719 191.294L250.174 191.848L248.406 192.869ZM241.12 193.445L239.605 193.416L242.256 191.885C242.98 191.467 243.368 191.063 243.418 190.675C243.477 190.281 243.229 189.924 242.673 189.603C242.109 189.277 241.49 189.134 240.817 189.173C240.152 189.207 239.457 189.433 238.733 189.851L236.081 191.382L236.006 190.492L241.12 193.445ZM251.859 190.876L243.02 185.772L246.884 183.542C247.844 182.988 248.871 182.608 249.965 182.404C251.06 182.2 252.137 182.171 253.198 182.317C254.259 182.463 255.235 182.793 256.128 183.308C257.012 183.819 257.584 184.382 257.845 185C258.098 185.612 258.047 186.234 257.694 186.866C257.34 187.498 256.683 188.091 255.724 188.645L251.859 190.876ZM252.112 189.126L254.259 187.887C254.924 187.503 255.37 187.099 255.597 186.676C255.833 186.249 255.854 185.828 255.661 185.415C255.475 184.997 255.08 184.613 254.473 184.263C253.859 183.909 253.194 183.68 252.478 183.578C251.763 183.466 251.034 183.478 250.294 183.615C249.561 183.746 248.862 184.003 248.197 184.387L246.051 185.627L252.112 189.126Z" fill="white"/>
</g>
<rect x="2.10469" width="338.718" height="211.669" rx="18.2267" transform="matrix(0.866044 -0.499967 0.866044 0.499967 0.412916 171.615)" stroke="url(#paint1_linear_100_612)" stroke-width="2.43023"/>
<defs>
<filter id="filter0_f_100_612" x="4.98298" y="-37.0737" width="554.131" height="481.894" filterUnits="userSpaceOnUse" color-interpolation-filters="sRGB">
<feFlood flood-opacity="0" result="BackgroundImageFix"/>
<feBlend mode="normal" in="SourceGraphic" in2="BackgroundImageFix" result="shape"/>
<feGaussianBlur stdDeviation="43.7442" result="effect1_foregroundBlur_100_612"/>
</filter>
<filter id="filter1_f_100_612" x="63.9552" y="12.9982" width="327.974" height="250.975" filterUnits="userSpaceOnUse" color-interpolation-filters="sRGB">
<feFlood flood-opacity="0" result="BackgroundImageFix"/>
<feBlend mode="normal" in="SourceGraphic" in2="BackgroundImageFix" result="shape"/>
<feGaussianBlur stdDeviation="36.4535" result="effect1_foregroundBlur_100_612"/>
</filter>
<filter id="filter2_f_100_612" x="-60.9808" y="-133.673" width="459.647" height="339.317" filterUnits="userSpaceOnUse" color-interpolation-filters="sRGB">
<feFlood flood-opacity="0" result="BackgroundImageFix"/>
<feBlend mode="normal" in="SourceGraphic" in2="BackgroundImageFix" result="shape"/>
<feGaussianBlur stdDeviation="43.7442" result="effect1_foregroundBlur_100_612"/>
</filter>
<filter id="filter3_f_100_612" x="-253.228" y="-18.7005" width="596.125" height="430.433" filterUnits="userSpaceOnUse" color-interpolation-filters="sRGB">
<feFlood flood-opacity="0" result="BackgroundImageFix"/>
<feBlend mode="normal" in="SourceGraphic" in2="BackgroundImageFix" result="shape"/>
<feGaussianBlur stdDeviation="51.0349" result="effect1_foregroundBlur_100_612"/>
</filter>
<filter id="filter4_f_100_612" x="-272.535" y="-6.76946" width="530.935" height="380.472" filterUnits="userSpaceOnUse" color-interpolation-filters="sRGB">
<feFlood flood-opacity="0" result="BackgroundImageFix"/>
<feBlend mode="normal" in="SourceGraphic" in2="BackgroundImageFix" result="shape"/>
<feGaussianBlur stdDeviation="43.7442" result="effect1_foregroundBlur_100_612"/>
</filter>
<filter id="filter5_f_100_612" x="115.165" y="83.6724" width="407.29" height="377.503" filterUnits="userSpaceOnUse" color-interpolation-filters="sRGB">
<feFlood flood-opacity="0" result="BackgroundImageFix"/>
<feBlend mode="normal" in="SourceGraphic" in2="BackgroundImageFix" result="shape"/>
<feGaussianBlur stdDeviation="43.7442" result="effect1_foregroundBlur_100_612"/>
</filter>
<filter id="filter6_b_100_612" x="89.077" y="154.896" width="83.8109" height="58.6566" filterUnits="userSpaceOnUse" color-interpolation-filters="sRGB">
<feFlood flood-opacity="0" result="BackgroundImageFix"/>
<feGaussianBlur in="BackgroundImageFix" stdDeviation="6.07558"/>
<feComposite in2="SourceAlpha" operator="in" result="effect1_backgroundBlur_100_612"/>
<feBlend mode="normal" in="SourceGraphic" in2="effect1_backgroundBlur_100_612" result="shape"/>
</filter>
<filter id="filter7_b_100_612" x="438.744" y="66.8568" width="93.0297" height="74.2512" filterUnits="userSpaceOnUse" color-interpolation-filters="sRGB">
<feFlood flood-opacity="0" result="BackgroundImageFix"/>
<feGaussianBlur in="BackgroundImageFix" stdDeviation="12.1512"/>
<feComposite in2="SourceAlpha" operator="in" result="effect1_backgroundBlur_100_612"/>
<feBlend mode="normal" in="SourceGraphic" in2="effect1_backgroundBlur_100_612" result="shape"/>
</filter>
<filter id="filter8_b_100_612" x="458.22" y="55.6132" width="93.0297" height="74.2512" filterUnits="userSpaceOnUse" color-interpolation-filters="sRGB">
<feFlood flood-opacity="0" result="BackgroundImageFix"/>
<feGaussianBlur in="BackgroundImageFix" stdDeviation="12.1512"/>
<feComposite in2="SourceAlpha" operator="in" result="effect1_backgroundBlur_100_612"/>
<feBlend mode="normal" in="SourceGraphic" in2="effect1_backgroundBlur_100_612" result="shape"/>
</filter>
<filter id="filter9_b_100_612" x="458.22" y="66.8567" width="73.5535" height="63.0076" filterUnits="userSpaceOnUse" color-interpolation-filters="sRGB">
<feFlood flood-opacity="0" result="BackgroundImageFix"/>
<feGaussianBlur in="BackgroundImageFix" stdDeviation="12.1512"/>
<feComposite in2="SourceAlpha" operator="in" result="effect1_backgroundBlur_100_612"/>
<feBlend mode="normal" in="SourceGraphic" in2="effect1_backgroundBlur_100_612" result="shape"/>
</filter>
<linearGradient id="paint0_linear_100_612" x1="408.26" y1="90.6916" x2="269.797" y2="335.04" gradientUnits="userSpaceOnUse">
<stop offset="0.422952" stop-color="#8900C9"/>
<stop offset="1" stop-color="#FFCCFF"/>
</linearGradient>
<linearGradient id="paint1_linear_100_612" x1="-2.54175e-06" y1="107.05" x2="341.148" y2="107.05" gradientUnits="userSpaceOnUse">
<stop stop-color="white" stop-opacity="0.8"/>
<stop offset="1" stop-color="white" stop-opacity="0.1"/>
</linearGradient>
<clipPath id="clip0_100_612">
<rect width="341.148" height="214.1" rx="19.4419" transform="matrix(0.866044 -0.499967 0.866044 0.499967 0.130981 170.563)" fill="white"/>
</clipPath>
<clipPath id="clip1_100_612">
<rect width="419.944" height="262.465" fill="white" transform="matrix(-0.866044 0.499967 -0.866044 -0.499967 591.127 91.8284)"/>
</clipPath>
<clipPath id="clip2_100_612">
<rect width="25.3878" height="25.3748" fill="white" transform="matrix(0.866044 -0.499967 0.866044 0.499967 273.579 44.4175)"/>
</clipPath>
<clipPath id="clip3_100_612">
<rect width="72.5442" height="48.6046" rx="3.88837" transform="matrix(0.866044 -0.499967 0.866044 0.499967 442.536 104.708)" fill="white"/>
</clipPath>
</defs>
</svg>
