<svg width="481" height="279" viewBox="0 0 481 279" fill="none" xmlns="http://www.w3.org/2000/svg">
<g clip-path="url(#clip0_100_511)">
<g clip-path="url(#clip1_100_511)">
<rect width="418" height="261.25" transform="matrix(0.866044 -0.499967 0.866044 0.499967 0 171.325)" fill="black"/>
<g filter="url(#filter0_f_100_511)">
<ellipse cx="360.235" cy="233.093" rx="360.235" ry="233.093" transform="matrix(0.866044 -0.499967 0.866044 0.499967 57.0663 138.381)" fill="#32006C"/>
</g>
<g filter="url(#filter1_f_100_511)">
<ellipse cx="195.212" cy="154.718" rx="195.212" ry="154.718" transform="matrix(0.866044 -0.499967 0.866044 0.499967 288.348 161.602)" fill="#6C00D7"/>
</g>
</g>
<path d="M209.958 250.127L202.887 246.044L203.968 245.42L212.221 246.616L211.656 246.942L209.534 242.207L210.615 241.583L217.697 245.659L216.454 246.377L211.322 243.426L211.585 243.274L213.312 247.257L212.727 247.596L205.786 246.622L206.089 246.447L211.211 249.404L209.958 250.127ZM219.486 244.627L214.091 241.512L215.354 240.783L220.749 243.898L219.486 244.627ZM213.839 240.632C213.603 240.768 213.333 240.838 213.03 240.841C212.734 240.841 212.481 240.781 212.273 240.661C212.057 240.536 211.953 240.39 211.96 240.223C211.966 240.048 212.087 239.893 212.323 239.757C212.559 239.621 212.822 239.551 213.111 239.547C213.401 239.535 213.65 239.59 213.859 239.71C214.081 239.838 214.196 239.99 214.202 240.165C214.202 240.336 214.081 240.492 213.839 240.632ZM224.952 241.553C224.386 241.879 223.763 242.103 223.083 242.223C222.403 242.336 221.729 242.344 221.062 242.247C220.396 242.149 219.796 241.947 219.264 241.64C218.725 241.329 218.375 240.983 218.214 240.602C218.045 240.217 218.062 239.83 218.264 239.441C218.473 239.049 218.86 238.689 219.426 238.362C219.951 238.059 220.52 237.855 221.133 237.75C221.746 237.637 222.362 237.639 222.982 237.756L222.578 238.642C222.16 238.588 221.773 238.594 221.416 238.66C221.066 238.722 220.756 238.831 220.487 238.986C220.177 239.165 219.965 239.366 219.85 239.587C219.736 239.809 219.736 240.034 219.85 240.264C219.958 240.489 220.187 240.703 220.537 240.905C220.887 241.107 221.261 241.242 221.659 241.308C222.049 241.37 222.436 241.368 222.82 241.302C223.204 241.236 223.551 241.113 223.861 240.934C224.13 240.779 224.319 240.6 224.427 240.398C224.541 240.192 224.551 239.968 224.457 239.727L225.993 239.494C226.188 239.848 226.195 240.205 226.013 240.567C225.831 240.921 225.477 241.249 224.952 241.553ZM228.055 238.291L226.499 237.358L226.712 234.226L228.227 233.352L228.237 236.122L228.126 236.828L228.055 238.291ZM228.227 239.58L220.731 235.253L221.994 234.524L229.49 238.851L228.227 239.58ZM232.298 237.23L227.894 236.962L227.681 235.918L233.834 236.344L232.298 237.23ZM240.967 232.342C240.415 232.661 239.819 232.904 239.179 233.071C238.539 233.23 237.886 233.316 237.219 233.328C236.546 233.335 235.892 233.265 235.259 233.118C234.626 232.97 234.047 232.744 233.522 232.441C232.996 232.138 232.606 231.804 232.35 231.438C232.094 231.073 231.976 230.697 231.996 230.312C232.016 229.92 232.171 229.539 232.461 229.169C232.744 228.796 233.161 228.45 233.714 228.131C234.313 227.785 234.95 227.53 235.623 227.367C236.303 227.2 236.997 227.13 237.704 227.157L237.684 228.102C237.132 228.102 236.63 228.158 236.179 228.271C235.727 228.376 235.31 228.539 234.926 228.761C234.556 228.975 234.273 229.208 234.077 229.461C233.882 229.714 233.781 229.97 233.774 230.231C233.768 230.491 233.852 230.746 234.027 230.995C234.209 231.24 234.481 231.467 234.845 231.677C235.202 231.883 235.593 232.039 236.017 232.144C236.448 232.245 236.893 232.295 237.351 232.295C237.802 232.291 238.243 232.235 238.674 232.126C239.105 232.017 239.509 231.854 239.886 231.636C240.237 231.434 240.519 231.209 240.735 230.96C240.95 230.703 241.075 230.414 241.109 230.091L242.836 230.225C242.762 230.61 242.557 230.989 242.22 231.362C241.883 231.728 241.466 232.054 240.967 232.342ZM241.422 230.843L238.775 229.315L240.018 228.598L242.836 230.225L241.422 230.843ZM248.569 227.837L247.478 227.207L247.175 227.114L245.265 226.011C244.895 225.798 244.498 225.696 244.073 225.708C243.642 225.716 243.201 225.85 242.75 226.111C242.447 226.286 242.194 226.486 241.992 226.711C241.797 226.933 241.682 227.151 241.649 227.364L240.234 227.12C240.302 226.824 240.48 226.53 240.77 226.239C241.059 225.939 241.42 225.665 241.851 225.417C242.632 224.966 243.423 224.726 244.225 224.699C245.026 224.664 245.818 224.872 246.599 225.323L249.761 227.149L248.569 227.837ZM246.942 228.858C246.538 229.091 246.117 229.256 245.68 229.353C245.235 229.447 244.808 229.472 244.397 229.429C243.986 229.379 243.626 229.264 243.316 229.085C243.013 228.91 242.811 228.712 242.71 228.49C242.615 228.265 242.662 228.016 242.851 227.744C243.04 227.471 243.407 227.178 243.952 226.863L245.518 225.959L246.357 226.443L244.882 227.294C244.451 227.543 244.232 227.751 244.225 227.919C244.211 228.082 244.306 228.222 244.508 228.338C244.737 228.471 245.01 228.523 245.326 228.496C245.643 228.469 245.963 228.362 246.286 228.175C246.596 227.996 246.801 227.796 246.902 227.574C247.01 227.349 246.98 227.125 246.811 226.904L247.781 227.219C247.976 227.471 248.003 227.74 247.862 228.024C247.727 228.303 247.421 228.581 246.942 228.858ZM251.382 226.213L245.987 223.099L247.189 222.405L248.674 223.262L248.098 223.093C247.896 222.79 247.873 222.484 248.028 222.177C248.189 221.866 248.529 221.561 249.048 221.262L250.25 221.956C250.183 221.979 250.126 222.004 250.079 222.031C250.025 222.055 249.974 222.08 249.927 222.107C249.449 222.383 249.21 222.685 249.21 223.011C249.203 223.334 249.476 223.655 250.028 223.974L252.645 225.484L251.382 226.213ZM257.879 222.544C257.361 222.843 256.778 223.047 256.132 223.156C255.485 223.257 254.838 223.257 254.192 223.156C253.545 223.055 252.942 222.843 252.383 222.52C251.824 222.198 251.457 221.85 251.282 221.476C251.107 221.103 251.111 220.732 251.292 220.362C251.481 219.989 251.835 219.653 252.353 219.354C252.804 219.093 253.31 218.918 253.869 218.829C254.421 218.735 255.003 218.745 255.616 218.858C256.229 218.971 256.852 219.21 257.485 219.575C258.112 219.937 258.529 220.294 258.738 220.648C258.94 220.998 258.964 221.335 258.809 221.657C258.654 221.98 258.344 222.275 257.879 222.544ZM256.95 221.832C257.253 221.657 257.455 221.463 257.556 221.249C257.664 221.031 257.66 220.808 257.546 220.578C257.438 220.345 257.212 220.129 256.869 219.931C256.519 219.729 256.145 219.598 255.748 219.54C255.35 219.474 254.963 219.472 254.586 219.534C254.215 219.593 253.879 219.709 253.576 219.884C253.273 220.059 253.067 220.256 252.959 220.473C252.858 220.687 252.862 220.911 252.969 221.144C253.077 221.37 253.306 221.583 253.656 221.786C254 221.984 254.37 222.116 254.768 222.182C255.172 222.244 255.559 222.246 255.929 222.188C256.307 222.126 256.647 222.007 256.95 221.832ZM259.597 221.471L258.324 220.736L256.94 219.878L255.404 219.109L252.05 217.172L253.303 216.449L260.799 220.777L259.597 221.471ZM264.936 220.733C264.673 220.884 264.367 221.011 264.017 221.112C263.667 221.213 263.326 221.269 262.996 221.281L262.572 220.453C262.815 220.445 263.05 220.414 263.279 220.359C263.508 220.305 263.707 220.229 263.875 220.132C264.104 220 264.232 219.86 264.259 219.712C264.286 219.564 264.226 219.378 264.077 219.152L263.683 218.563L263.633 218.417L260.905 214.486L262.117 213.787L265.421 218.61C265.657 218.94 265.788 219.234 265.815 219.49C265.849 219.743 265.785 219.971 265.623 220.173C265.468 220.371 265.239 220.558 264.936 220.733ZM264.209 219.03L256.187 217.21L257.501 216.452L264.138 217.997L264.209 219.03Z" fill="white"/>
<path d="M285.933 206.267L279.366 202.476L280.538 202.488L278.467 203.683L277.366 203.048L280.174 201.426L287.246 205.509L285.933 206.267ZM288.558 204.751L287.679 204.244L287.82 201.083C287.834 200.819 287.814 200.605 287.76 200.441C287.706 200.278 287.625 200.146 287.517 200.045C287.409 199.936 287.292 199.845 287.164 199.771C286.84 199.584 286.48 199.504 286.083 199.532C285.679 199.555 285.261 199.691 284.83 199.94C284.486 200.138 284.234 200.354 284.072 200.587C283.917 200.817 283.863 201.062 283.911 201.322L282.284 201.444C282.19 201.071 282.274 200.692 282.537 200.307C282.799 199.915 283.22 199.551 283.8 199.217C284.311 198.921 284.84 198.713 285.386 198.593C285.931 198.464 286.456 198.429 286.962 198.488C287.473 198.542 287.938 198.69 288.356 198.931C288.585 199.063 288.783 199.213 288.952 199.38C289.113 199.543 289.235 199.745 289.315 199.986C289.396 200.228 289.43 200.531 289.416 200.896L289.295 203.614L288.527 203.486L292.659 201.1L293.771 201.742L288.558 204.751ZM294.89 202.262L288.707 194.844L289.839 194.19L296.021 201.609L294.89 202.262ZM298.285 199.136L297.406 198.628L297.548 195.467C297.561 195.203 297.541 194.989 297.487 194.826C297.433 194.662 297.353 194.53 297.245 194.429C297.137 194.32 297.019 194.229 296.891 194.155C296.568 193.968 296.208 193.889 295.81 193.916C295.406 193.939 294.989 194.075 294.558 194.324C294.214 194.522 293.962 194.738 293.8 194.971C293.645 195.201 293.591 195.446 293.638 195.706L292.012 195.829C291.917 195.455 292.002 195.076 292.264 194.691C292.527 194.299 292.948 193.935 293.527 193.601C294.039 193.305 294.568 193.097 295.113 192.977C295.659 192.849 296.184 192.814 296.689 192.872C297.201 192.926 297.666 193.074 298.083 193.315C298.312 193.447 298.511 193.597 298.679 193.764C298.841 193.927 298.962 194.13 299.043 194.371C299.124 194.612 299.158 194.915 299.144 195.281L299.023 197.998L298.255 197.87L302.387 195.485L303.498 196.126L298.285 199.136ZM302.401 194.905L301.492 194.38L300.421 189.738L301.825 188.927L302.947 193.54L302.088 193.803L307.695 190.566L308.806 191.207L302.401 194.905ZM307.887 193.593L306.28 192.665L305.209 192.001L303.785 191.178L305.018 190.467L309.16 192.858L307.887 193.593Z" fill="white"/>
<g filter="url(#filter2_b_100_511)">
<path d="M103.372 191.336C100.338 189.585 100.339 186.744 103.375 184.991L130.858 169.125C133.894 167.373 138.815 167.372 141.849 169.123L158.331 178.638C161.365 180.39 161.364 183.231 158.328 184.983L130.844 200.85C127.809 202.602 122.888 202.603 119.854 200.851L103.372 191.336Z" fill="white" fill-opacity="0.3"/>
<path d="M103.793 191.093C100.991 189.476 100.992 186.853 103.796 185.234L131.279 169.368C134.083 167.75 138.627 167.749 141.428 169.366L157.91 178.881C160.711 180.499 160.711 183.122 157.907 184.74L130.423 200.607C127.62 202.225 123.076 202.226 120.275 200.608L103.793 191.093Z" stroke="white" stroke-opacity="0.3" stroke-width="0.972093"/>
</g>
<path d="M107.841 183.206L108.528 182.81L134.624 197.875L133.937 198.272L125.696 193.514L117.107 198.472L116.42 198.076L125.009 193.118L116.768 188.36L108.18 193.318L107.493 192.922L116.081 187.964L107.841 183.206Z" fill="white" fill-opacity="0.3"/>
<path d="M144.591 181.813L153.523 176.656L154.21 177.053L145.278 182.209L153.519 186.967L152.832 187.363L139.097 179.434C136.821 178.121 136.822 175.99 139.099 174.676L144.596 171.502L145.282 171.899L139.786 175.072C137.888 176.167 137.888 177.943 139.784 179.038L144.591 181.813Z" fill="white" fill-opacity="0.3"/>
<path d="M127.423 171.901L126.736 172.298L132.23 175.47L132.917 175.073L127.423 171.901Z" fill="white" fill-opacity="0.3"/>
<path fill-rule="evenodd" clip-rule="evenodd" d="M135.661 182.211C138.316 183.743 138.315 186.229 135.659 187.763C133.002 189.296 128.697 189.297 126.042 187.764C123.387 186.231 123.388 183.746 126.044 182.212C128.701 180.679 133.006 180.678 135.661 182.211ZM134.974 182.607C137.25 183.921 137.249 186.052 134.972 187.366C132.695 188.68 129.005 188.681 126.729 187.367C124.453 186.054 124.454 183.923 126.731 182.609C129.008 181.294 132.698 181.294 134.974 182.607Z" fill="white" fill-opacity="0.3"/>
<g clip-path="url(#clip2_100_511)">
<path d="M284.85 48.3509C285.468 48.3905 286.086 48.5094 286.635 48.6679C287.185 48.8264 287.734 49.0643 288.215 49.3418C288.696 49.6193 289.108 49.9365 289.382 50.2537C289.657 50.5709 289.863 50.9278 289.932 51.2847C290.069 51.7605 290.824 52.1173 291.648 52.0379C292.473 51.9585 293.091 51.5222 292.954 51.0463C292.817 50.4912 292.542 50.0153 292.13 49.4602C291.719 48.9051 291.101 48.469 290.414 48.0725C289.727 47.6761 288.903 47.3589 288.01 47.0815C287.186 46.8437 286.224 46.6852 285.263 46.606C284.438 46.5268 283.683 46.8838 283.545 47.3597C283.407 47.8356 284.025 48.2717 284.85 48.3509Z" fill="white"/>
<path d="M286.637 45.0196C288.766 45.2969 290.827 45.931 292.475 46.8825C294.123 47.834 295.222 49.0235 295.702 50.2528C295.839 50.7286 296.732 51.0061 297.556 50.9267C298.449 50.8076 298.862 50.3316 298.725 49.8558C298.107 48.3093 296.803 46.8422 294.674 45.6132C292.614 44.4239 290.004 43.6311 287.325 43.2746C286.501 43.1954 285.607 43.4732 285.47 43.9491C285.332 44.4249 285.744 44.9007 286.637 45.0196Z" fill="white"/>
<path d="M288.562 41.5296C291.653 41.9654 294.538 42.9167 296.941 44.3043C299.345 45.6919 300.924 47.3968 301.747 49.1415C302.022 49.6174 302.777 49.8949 303.67 49.7758C304.495 49.617 304.976 49.1807 304.77 48.6652C303.878 46.5636 302.024 44.6208 299.209 42.9953C296.393 41.3698 293.027 40.2996 289.387 39.7846C288.563 39.6261 287.738 39.9435 287.463 40.4194C287.257 40.935 287.738 41.3711 288.562 41.5296Z" fill="white"/>
<path d="M290.487 38.0396C294.471 38.6735 298.317 39.8626 301.476 41.6863C304.635 43.51 306.763 45.6908 307.793 48.0303C308.067 48.5061 308.823 48.7836 309.716 48.6645C310.54 48.5058 311.021 48.0695 310.815 47.554C309.58 44.9369 307.246 42.4786 303.675 40.417C300.104 38.3555 295.845 37.0078 291.312 36.2947C290.488 36.1362 289.663 36.4535 289.388 36.9294C289.113 37.4054 289.663 37.8811 290.487 38.0396Z" fill="white"/>
</g>
<g clip-path="url(#clip3_100_511)">
<g filter="url(#filter3_b_100_511)">
<ellipse cx="18.1361" cy="18.1361" rx="18.1361" ry="18.1361" transform="matrix(0.866044 -0.499967 0.866044 0.499967 453.714 104.745)" fill="white" fill-opacity="0.3"/>
</g>
<g filter="url(#filter4_b_100_511)">
<path d="M520.31 84.434C528.985 89.4418 528.985 97.5611 520.31 102.569C511.636 107.577 497.572 107.577 488.897 102.569C480.223 97.5611 480.223 89.4418 488.897 84.434C497.572 79.4262 511.636 79.4262 520.31 84.434Z" fill="white" fill-opacity="0.7"/>
</g>
<g filter="url(#filter5_b_100_511)">
<path d="M482.541 92.0084C481.782 95.7681 483.901 99.6845 488.897 102.569C493.893 105.453 500.677 106.676 507.19 106.238C507.949 102.478 505.83 98.5619 500.834 95.6776C495.838 92.7933 489.054 91.5702 482.541 92.0084Z" fill="white" fill-opacity="0.6"/>
</g>
</g>
<path d="M180.424 232.802L171.584 227.699L175.448 225.468C176.408 224.914 177.435 224.535 178.53 224.331C179.624 224.127 180.702 224.098 181.762 224.244C182.823 224.389 183.8 224.72 184.692 225.235C185.576 225.745 186.149 226.309 186.41 226.926C186.662 227.539 186.612 228.161 186.258 228.793C185.904 229.425 185.248 230.017 184.288 230.572L180.424 232.802ZM180.676 231.053L182.823 229.813C183.488 229.429 183.934 229.026 184.162 228.603C184.397 228.176 184.419 227.755 184.225 227.342C184.04 226.924 183.644 226.54 183.038 226.19C182.423 225.835 181.758 225.607 181.043 225.505C180.327 225.393 179.599 225.405 178.858 225.541C178.126 225.673 177.427 225.93 176.762 226.314L174.615 227.553L180.676 231.053ZM187.207 222.923L191.602 220.386L192.953 221.166L188.559 223.703L187.207 222.923ZM191.122 225.037L196.11 222.157L197.487 222.952L190.857 226.779L182.017 221.676L188.47 217.951L189.847 218.746L185.035 221.523L191.122 225.037ZM199.317 221.896L190.477 216.792L194.619 214.401C195.68 213.789 196.698 213.444 197.675 213.366C198.643 213.283 199.477 213.444 200.175 213.847C200.647 214.119 200.942 214.416 201.059 214.737C201.169 215.052 201.131 215.371 200.946 215.692C200.761 216.003 200.453 216.282 200.024 216.53L199.797 216.136C200.293 215.849 200.832 215.645 201.413 215.524C201.985 215.397 202.558 215.368 203.13 215.436C203.711 215.5 204.259 215.679 204.772 215.976C205.53 216.413 205.829 216.921 205.669 217.5C205.509 218.078 204.856 218.698 203.711 219.359L199.317 221.896ZM199.67 220.204L202.322 218.673C202.937 218.318 203.307 217.988 203.433 217.682C203.56 217.376 203.4 217.094 202.954 216.836C202.516 216.583 202.032 216.493 201.501 216.566C200.963 216.634 200.386 216.846 199.771 217.201L196.993 218.804L195.718 218.068L198.168 216.654C198.74 216.323 199.077 216.012 199.178 215.721C199.287 215.424 199.14 215.159 198.736 214.926C198.323 214.688 197.86 214.6 197.347 214.664C196.842 214.722 196.303 214.916 195.73 215.247L193.407 216.588L199.67 220.204ZM208.923 216.35L200.084 211.246L201.725 210.299L210.565 215.402L208.923 216.35ZM214.749 212.986L207.299 208.685L204.369 210.376L202.98 209.574L210.481 205.244L211.87 206.046L208.94 207.737L216.391 212.039L214.749 212.986ZM228.26 205.332C227.587 205.721 226.85 206.02 226.051 206.229C225.251 206.428 224.434 206.535 223.601 206.55C222.767 206.554 221.955 206.464 221.163 206.28C220.372 206.095 219.648 205.813 218.991 205.434C218.335 205.055 217.846 204.637 217.527 204.18C217.207 203.723 217.059 203.254 217.085 202.773C217.101 202.287 217.287 201.816 217.64 201.359C217.985 200.897 218.499 200.469 219.181 200.076C219.905 199.658 220.692 199.349 221.542 199.15C222.384 198.946 223.256 198.866 224.156 198.909L224.093 200.098C223.428 200.083 222.814 200.141 222.249 200.273C221.677 200.399 221.159 200.596 220.696 200.863C220.233 201.13 219.884 201.42 219.648 201.731C219.421 202.037 219.303 202.353 219.295 202.678C219.295 202.999 219.404 203.315 219.623 203.626C219.85 203.932 220.191 204.217 220.646 204.479C221.1 204.742 221.593 204.938 222.123 205.07C222.662 205.196 223.209 205.259 223.765 205.259C224.329 205.254 224.876 205.186 225.407 205.055C225.945 204.919 226.446 204.717 226.909 204.45C227.372 204.183 227.717 203.886 227.945 203.561C228.164 203.23 228.256 202.87 228.223 202.482L230.294 202.452C230.361 202.968 230.222 203.471 229.877 203.962C229.532 204.452 228.993 204.909 228.26 205.332ZM231.783 203.153L226.921 195.753L228.537 194.82L241.367 197.62L239.65 198.611L228.259 195.987L228.916 195.608L233.475 202.176L231.783 203.153ZM231.568 200.915L230.722 199.916L235.495 197.16L237.225 197.649L231.568 200.915ZM242.492 196.971L233.652 191.867L237.289 189.768C238.072 189.316 238.867 189.002 239.676 188.827C240.492 188.648 241.288 188.606 242.062 188.704C242.837 188.801 243.548 189.036 244.196 189.411C244.845 189.785 245.253 190.196 245.421 190.643C245.581 191.085 245.506 191.542 245.194 192.013C244.883 192.475 244.335 192.932 243.552 193.384L240.825 194.959L240.812 194.106L244.133 196.023L242.492 196.971ZM248.275 193.632L242.833 193.07L244.588 192.057L250.043 192.611L248.275 193.632ZM240.989 194.208L239.473 194.178L242.125 192.648C242.849 192.23 243.237 191.826 243.287 191.437C243.346 191.044 243.098 190.686 242.542 190.366C241.978 190.04 241.359 189.897 240.686 189.936C240.021 189.97 239.326 190.196 238.602 190.614L235.95 192.145L235.874 191.255L240.989 194.208ZM251.728 191.638L242.889 186.535L246.753 184.304C247.713 183.75 248.74 183.371 249.834 183.167C250.929 182.963 252.006 182.934 253.067 183.08C254.128 183.225 255.104 183.556 255.997 184.071C256.881 184.581 257.453 185.145 257.714 185.762C257.967 186.375 257.916 186.997 257.563 187.629C257.209 188.26 256.552 188.853 255.593 189.407L251.728 191.638ZM251.981 189.889L254.128 188.649C254.793 188.265 255.239 187.862 255.466 187.439C255.702 187.011 255.723 186.591 255.529 186.178C255.344 185.76 254.949 185.376 254.342 185.026C253.728 184.671 253.063 184.443 252.347 184.341C251.632 184.229 250.903 184.241 250.162 184.377C249.43 184.508 248.731 184.766 248.066 185.15L245.919 186.389L251.981 189.889Z" fill="white"/>
</g>
<rect x="2.10469" width="338.718" height="211.669" rx="18.2267" transform="matrix(0.866044 -0.499967 0.866044 0.499967 0.281935 172.378)" stroke="url(#paint0_linear_100_511)" stroke-width="2.43023"/>
<defs>
<filter id="filter0_f_100_511" x="54.1373" y="-284.871" width="1033.55" height="719.371" filterUnits="userSpaceOnUse" color-interpolation-filters="sRGB">
<feFlood flood-opacity="0" result="BackgroundImageFix"/>
<feBlend mode="normal" in="SourceGraphic" in2="BackgroundImageFix" result="shape"/>
<feGaussianBlur stdDeviation="72.5694" result="effect1_foregroundBlur_100_511"/>
</filter>
<filter id="filter1_f_100_511" x="288.589" y="-70.2683" width="605.628" height="423.249" filterUnits="userSpaceOnUse" color-interpolation-filters="sRGB">
<feFlood flood-opacity="0" result="BackgroundImageFix"/>
<feBlend mode="normal" in="SourceGraphic" in2="BackgroundImageFix" result="shape"/>
<feGaussianBlur stdDeviation="43.5416" result="effect1_foregroundBlur_100_511"/>
</filter>
<filter id="filter2_b_100_511" x="88.946" y="155.659" width="83.8109" height="58.6566" filterUnits="userSpaceOnUse" color-interpolation-filters="sRGB">
<feFlood flood-opacity="0" result="BackgroundImageFix"/>
<feGaussianBlur in="BackgroundImageFix" stdDeviation="6.07558"/>
<feComposite in2="SourceAlpha" operator="in" result="effect1_backgroundBlur_100_511"/>
<feBlend mode="normal" in="SourceGraphic" in2="effect1_backgroundBlur_100_511" result="shape"/>
</filter>
<filter id="filter3_b_100_511" x="438.612" y="67.6196" width="93.0297" height="74.2512" filterUnits="userSpaceOnUse" color-interpolation-filters="sRGB">
<feFlood flood-opacity="0" result="BackgroundImageFix"/>
<feGaussianBlur in="BackgroundImageFix" stdDeviation="12.1512"/>
<feComposite in2="SourceAlpha" operator="in" result="effect1_backgroundBlur_100_511"/>
<feBlend mode="normal" in="SourceGraphic" in2="effect1_backgroundBlur_100_511" result="shape"/>
</filter>
<filter id="filter4_b_100_511" x="458.089" y="56.3758" width="93.0297" height="74.2512" filterUnits="userSpaceOnUse" color-interpolation-filters="sRGB">
<feFlood flood-opacity="0" result="BackgroundImageFix"/>
<feGaussianBlur in="BackgroundImageFix" stdDeviation="12.1512"/>
<feComposite in2="SourceAlpha" operator="in" result="effect1_backgroundBlur_100_511"/>
<feBlend mode="normal" in="SourceGraphic" in2="effect1_backgroundBlur_100_511" result="shape"/>
</filter>
<filter id="filter5_b_100_511" x="458.089" y="67.6194" width="73.5535" height="63.0076" filterUnits="userSpaceOnUse" color-interpolation-filters="sRGB">
<feFlood flood-opacity="0" result="BackgroundImageFix"/>
<feGaussianBlur in="BackgroundImageFix" stdDeviation="12.1512"/>
<feComposite in2="SourceAlpha" operator="in" result="effect1_backgroundBlur_100_511"/>
<feBlend mode="normal" in="SourceGraphic" in2="effect1_backgroundBlur_100_511" result="shape"/>
</filter>
<linearGradient id="paint0_linear_100_511" x1="-2.54175e-06" y1="107.05" x2="341.148" y2="107.05" gradientUnits="userSpaceOnUse">
<stop stop-color="white" stop-opacity="0.8"/>
<stop offset="1" stop-color="white" stop-opacity="0.1"/>
</linearGradient>
<clipPath id="clip0_100_511">
<rect width="341.148" height="214.1" rx="19.4419" transform="matrix(0.866044 -0.499967 0.866044 0.499967 0 171.325)" fill="white"/>
</clipPath>
<clipPath id="clip1_100_511">
<rect width="418" height="261.25" fill="white" transform="matrix(0.866044 -0.499967 0.866044 0.499967 0 171.325)"/>
</clipPath>
<clipPath id="clip2_100_511">
<rect width="25.3878" height="25.3748" fill="white" transform="matrix(0.866044 -0.499967 0.866044 0.499967 273.448 45.1802)"/>
</clipPath>
<clipPath id="clip3_100_511">
<rect width="72.5442" height="48.6046" rx="3.88837" transform="matrix(0.866044 -0.499967 0.866044 0.499967 442.405 105.47)" fill="white"/>
</clipPath>
</defs>
</svg>
