<svg width="19" height="19" viewBox="0 0 19 19" fill="none" xmlns="http://www.w3.org/2000/svg">
<path d="M8 0.0692215C12.0041 0.0692215 15.25 3.31516 15.25 7.31922C15.25 9.05109 14.6427 10.6411 13.6295 11.888L18.5303 16.7889C18.8232 17.0818 18.8232 17.5567 18.5303 17.8496C18.2641 18.1158 17.8474 18.14 17.5538 17.9222L17.4697 17.8496L12.5688 12.9488C11.3219 13.962 9.73187 14.5692 8 14.5692C3.99594 14.5692 0.75 11.3233 0.75 7.31922C0.75 3.31516 3.99594 0.0692215 8 0.0692215ZM8 1.56922C4.82436 1.56922 2.25 4.14358 2.25 7.31922C2.25 10.4949 4.82436 13.0692 8 13.0692C11.1756 13.0692 13.75 10.4949 13.75 7.31922C13.75 4.14358 11.1756 1.56922 8 1.56922Z" fill="#E3E5EA"/>
</svg>
