<svg width="40" height="26" viewBox="0 0 40 26" fill="none" xmlns="http://www.w3.org/2000/svg">
<path d="M14.052 3.37172H25.9531V22.6263H14.052V3.37172Z" fill="#FF5F00"/>
<path d="M15.278 13.0005C15.2765 11.1465 15.7008 9.3164 16.5188 7.64877C17.3367 5.98114 18.5269 4.51966 19.9993 3.37494C18.1757 1.95532 15.9857 1.07254 13.6796 0.827498C11.3735 0.582455 9.04431 0.985033 6.95826 1.98922C4.87221 2.99341 3.11345 4.55869 1.88298 6.50617C0.65252 8.45365 0 10.7048 0 13.0022C0 15.2997 0.65252 17.5508 1.88298 19.4982C3.11345 21.4457 4.87221 23.011 6.95826 24.0152C9.04431 25.0194 11.3735 25.422 13.6796 25.1769C15.9857 24.9319 18.1757 24.0491 19.9993 22.6295C18.5264 21.4844 17.336 20.0224 16.518 18.3541C15.7 16.6859 15.276 14.8551 15.278 13.0005V13.0005Z" fill="#EB001B"/>
<path d="M39.9999 13.0007C39.9998 15.2984 39.3472 17.5496 38.1165 19.4972C36.8858 21.4447 35.1268 23.01 33.0404 24.014C30.9541 25.0181 28.6247 25.4204 26.3185 25.175C24.0122 24.9296 21.8222 24.0464 19.9988 22.6263C21.4705 21.4805 22.6604 20.0187 23.4786 18.351C24.2967 16.6832 24.7219 14.8532 24.7219 12.999C24.7219 11.1448 24.2967 9.31479 23.4786 7.64708C22.6604 5.97936 21.4705 4.51748 19.9988 3.37174C21.8222 1.95167 24.0122 1.06845 26.3185 0.823052C28.6247 0.577653 30.9541 0.979971 33.0405 1.98402C35.1268 2.98807 36.8858 4.55333 38.1165 6.50089C39.3472 8.44845 39.9999 10.6997 39.9999 12.9973V13.0007Z" fill="#F79E1B"/>
</svg>
