<svg width="19" height="20" viewBox="0 0 19 20" fill="none" xmlns="http://www.w3.org/2000/svg">
<path d="M9.51242 0.250053C10.2464 0.258513 10.9775 0.343316 11.6939 0.503092C12.0067 0.572839 12.2406 0.833564 12.2761 1.15202L12.4463 2.67886C12.5233 3.37991 13.1152 3.91089 13.8209 3.91163C14.0105 3.91193 14.1982 3.87243 14.3734 3.79489L15.7741 3.17961C16.0654 3.05165 16.4057 3.12141 16.6232 3.35367C17.6354 4.43469 18.3892 5.7312 18.8279 7.14564C18.9225 7.45063 18.8137 7.78209 18.5566 7.97156L17.3151 8.88665C16.961 9.14684 16.7518 9.56006 16.7518 9.99951C16.7518 10.439 16.961 10.8522 17.3159 11.1129L18.5585 12.0284C18.8156 12.2178 18.9246 12.5493 18.8299 12.8543C18.3914 14.2685 17.638 15.5649 16.6264 16.6461C16.4091 16.8784 16.069 16.9483 15.7777 16.8207L14.3714 16.2046C13.9691 16.0285 13.507 16.0543 13.1268 16.274C12.7466 16.4938 12.4935 16.8813 12.4452 17.3178L12.2761 18.8445C12.2413 19.1593 12.0124 19.4182 11.7043 19.4915C10.2558 19.8362 8.74673 19.8362 7.29828 19.4915C6.99015 19.4182 6.76129 19.1593 6.72643 18.8445L6.5576 17.32C6.50802 16.8843 6.25459 16.498 5.87467 16.279C5.49475 16.06 5.03345 16.0344 4.63244 16.2094L3.22582 16.8257C2.93446 16.9534 2.59428 16.8833 2.37703 16.651C1.36487 15.5685 0.611438 14.2706 0.173445 12.8548C0.0791063 12.5499 0.188106 12.2187 0.44509 12.0294L1.68842 11.1134C2.04256 10.8532 2.25172 10.44 2.25172 10.0005C2.25172 9.56106 2.04256 9.14784 1.68796 8.88731L0.445406 7.9729C0.18804 7.7835 0.0789403 7.45184 0.173612 7.14664C0.612363 5.7322 1.36619 4.4357 2.37837 3.35467C2.59584 3.12241 2.93618 3.05265 3.22749 3.18061L4.62786 3.79578C5.03081 3.97261 5.49404 3.9459 5.87601 3.72274C6.25633 3.50214 6.50953 3.11428 6.55841 2.6777L6.72849 1.15202C6.76401 0.833403 6.99811 0.572594 7.31105 0.502996C8.02832 0.343473 8.7602 0.258707 9.51242 0.250053ZM9.49994 7C7.84309 7 6.49994 8.34315 6.49994 10C6.49994 11.6569 7.84309 13 9.49994 13C11.1568 13 12.4999 11.6569 12.4999 10C12.4999 8.34315 11.1568 7 9.49994 7Z" fill="#B2B7C7"/>
</svg>
