<svg width="19" height="13" viewBox="0 0 19 13" fill="none" xmlns="http://www.w3.org/2000/svg">
<path fill-rule="evenodd" clip-rule="evenodd" d="M9.53831 2.80151C12.0282 2.80162 14.423 3.7782 16.2275 5.52941C16.3634 5.66461 16.5806 5.66291 16.7145 5.52559L18.0134 4.18744C18.0812 4.1178 18.119 4.02345 18.1184 3.9253C18.1178 3.82714 18.079 3.73325 18.0104 3.66442C13.274 -0.968869 5.80184 -0.968869 1.06545 3.66442C0.996844 3.7332 0.957916 3.82706 0.957283 3.92522C0.956651 4.02338 0.994366 4.11775 1.06208 4.18744L2.36142 5.52559C2.49517 5.66311 2.71254 5.66482 2.84835 5.52941C4.65313 3.77809 7.04813 2.8015 9.53831 2.80151ZM9.57422 6.9252C10.9423 6.92511 12.2615 7.44416 13.2756 8.38148C13.4128 8.51451 13.6288 8.51163 13.7625 8.37499L15.06 7.03684C15.1283 6.96665 15.1662 6.87143 15.1652 6.77249C15.1643 6.67354 15.1245 6.57913 15.0547 6.51037C11.9667 3.57825 7.1844 3.57825 4.09632 6.51037C4.02657 6.57913 3.98677 6.67359 3.98586 6.77257C3.98494 6.87154 4.02298 6.96675 4.09146 7.03684L5.38855 8.37499C5.52225 8.51163 5.73831 8.51451 5.87547 8.38148C6.88888 7.44478 8.20707 6.92578 9.57422 6.9252ZM12.2126 9.62092C12.2146 9.72014 12.1764 9.8158 12.107 9.88532L9.86262 12.1972C9.79683 12.2652 9.70713 12.3034 9.61354 12.3034C9.51995 12.3034 9.43025 12.2652 9.36446 12.1972L7.11973 9.88532C7.05039 9.81575 7.01224 9.72006 7.0143 9.62084C7.01636 9.52162 7.05843 9.42766 7.1306 9.36115C8.56392 8.12368 10.6632 8.12368 12.0965 9.36115C12.1686 9.42771 12.2106 9.5217 12.2126 9.62092Z" fill="#E3E5EA"/>
</svg>
