<svg width="28" height="14" viewBox="0 0 28 14" fill="none" xmlns="http://www.w3.org/2000/svg">
<path opacity="0.35" d="M0.717358 4.21797C0.717358 2.282 2.28677 0.712597 4.22273 0.712597H21.3839C23.3198 0.712597 24.8892 2.28201 24.8892 4.21797V9.26536C24.8892 11.2013 23.3198 12.7707 21.3839 12.7707H4.22273C2.28677 12.7707 0.717358 11.2013 0.717358 9.26536V4.21797Z" fill="#E3E5EA" stroke="#E3E5EA" stroke-width="1.06509"/>
<path opacity="0.4" d="M26.4314 5.22742V9.48776C27.2885 9.12694 27.8459 8.28755 27.8459 7.35759C27.8459 6.42763 27.2885 5.58824 26.4314 5.22742Z" fill="#E3E5EA"/>
<path d="M2.20386 4.21787C2.20386 3.10283 3.10778 2.19891 4.22281 2.19891H21.384C22.499 2.19891 23.4029 3.10283 23.4029 4.21787V9.26526C23.4029 10.3803 22.499 11.2842 21.384 11.2842H4.22282C3.10778 11.2842 2.20386 10.3803 2.20386 9.26526V4.21787Z" fill="#E3E5EA"/>
</svg>
