<svg width="24" height="25" viewBox="0 0 24 25" fill="none" xmlns="http://www.w3.org/2000/svg">
<path d="M12.0001 2.49622C16.05 2.49622 19.3568 5.69096 19.4959 9.74527L19.5001 9.99622V14.0932L20.8801 17.2492C20.9492 17.4071 20.9848 17.5776 20.9848 17.75C20.9848 18.4403 20.4252 19 19.7348 19L15.0001 19.0015C15.0001 20.6583 13.657 22.0015 12.0001 22.0015C10.4024 22.0015 9.09645 20.7526 9.0052 19.1778L8.99966 18.9992L4.27498 19C4.10364 19 3.93413 18.9648 3.77697 18.8965C3.14377 18.6215 2.85342 17.8852 3.12846 17.252L4.50011 14.0941V9.99611C4.50071 5.84132 7.8522 2.49622 12.0001 2.49622ZM13.4997 18.9992L10.5001 19.0015C10.5001 19.8299 11.1717 20.5015 12.0001 20.5015C12.7798 20.5015 13.4206 19.9066 13.4932 19.1459L13.4997 18.9992ZM12.0001 3.99622C8.67995 3.99622 6.00059 6.67047 6.00011 9.99622V14.4058L4.65613 17.5H19.3526L18.0001 14.4068L18.0002 10.0091L17.9965 9.78387C17.8854 6.5504 15.2417 3.99622 12.0001 3.99622Z" fill="#E3E5EA"/>
</svg>
