<svg width="19" height="13" viewBox="0 0 19 13" fill="none" xmlns="http://www.w3.org/2000/svg">
<path d="M10.8057 3.21789C10.8057 2.66037 11.2577 2.20841 11.8152 2.20841H12.8247C13.3822 2.20841 13.8342 2.66037 13.8342 3.21789V11.2937C13.8342 11.8512 13.3822 12.3032 12.8247 12.3032H11.8152C11.2577 12.3032 10.8057 11.8512 10.8057 11.2937V3.21789Z" fill="#E3E5EA"/>
<path d="M15.8531 1.19893C15.8531 0.641412 16.3051 0.189453 16.8626 0.189453H17.8721C18.4296 0.189453 18.8816 0.641412 18.8816 1.19893V11.2937C18.8816 11.8512 18.4296 12.3032 17.8721 12.3032H16.8626C16.3051 12.3032 15.8531 11.8512 15.8531 11.2937V1.19893Z" fill="#E3E5EA"/>
<path d="M5.75833 6.75106C5.75833 6.19354 6.21029 5.74159 6.76781 5.74159H7.77729C8.33481 5.74159 8.78677 6.19354 8.78677 6.75106V11.2937C8.78677 11.8512 8.33481 12.3032 7.77729 12.3032H6.76781C6.21029 12.3032 5.75833 11.8512 5.75833 11.2937V6.75106Z" fill="#E3E5EA"/>
<path d="M0.710938 9.27476C0.710938 8.71724 1.1629 8.26528 1.72042 8.26528H2.72989C3.28741 8.26528 3.73937 8.71724 3.73937 9.27476V11.2937C3.73937 11.8512 3.28741 12.3032 2.72989 12.3032H1.72042C1.1629 12.3032 0.710938 11.8512 0.710938 11.2937V9.27476Z" fill="#E3E5EA"/>
</svg>
